<svg xmlns="http://www.w3.org/2000/svg" viewBox="-0.1 0.5 548.1 258"><path opacity=".66" fill="none" stroke="#F7A202" stroke-miterlimit="20" d="M548 1C415 7.4 354 56.6 138.7 106.5 80 120.1 0 128 0 128h0"/><path opacity=".66" fill="none" stroke="#F7A202" stroke-miterlimit="20" d="M548 23c-133 6.4-145.2 33.4-360.6 83.5C128.8 120.2 0 129 0 129h0"/><path opacity=".66" fill="none" stroke="#F7A202" stroke-miterlimit="20" d="M548 35c-133 6.4-138.5 27-353.8 77C135.5 125.6 0 129 0 129h0"/><path opacity=".66" fill="none" stroke="#F7A202" stroke-miterlimit="20" d="M548 47c-133 6.4-126.7 16.4-342.1 66.6C147.3 127.3 0 128 0 128h0"/><path opacity=".66" fill="none" stroke="#F7A202" stroke-miterlimit="20" d="M548 57c-133 6.6-106.6 6.2-321.9 57.7C167.4 128.7 0 129 0 129h0"/><path opacity=".66" fill="none" stroke="#F7A202" stroke-miterlimit="20" d="M548 69c-133 6.2-182.4 26.7-342.1 51.1C128.3 132 0 128 0 128h0"/><path opacity=".66" fill="none" stroke="#F7A202" stroke-miterlimit="20" d="M548 77c-133 6.2-243.3 44.7-376.5 51.9C74.8 134.1 0 126.3 0 126.3h0"/><path opacity=".66" fill="none" stroke="#F7A202" stroke-miterlimit="20" d="M548 13c-133 6.4-168.8 43.6-384.1 93.5C105.2 120.1 0 128 0 128h0M548 258c-133-6.4-194-56.1-409.3-106.4C80 137.9 0 130 0 130h0"/><path opacity=".66" fill="none" stroke="#F7A202" stroke-miterlimit="20" d="M548 236c-133-6.4-145.2-33.4-360.6-83.5C128.8 138.8 0 130 0 130h0"/><path opacity=".66" fill="none" stroke="#F7A202" stroke-miterlimit="20" d="M548 224c-133-6.4-138.5-27-353.8-77C135.5 133.4 0 130 0 130h0"/><path opacity=".66" fill="none" stroke="#F7A202" stroke-miterlimit="20" d="M548 212c-133-6.5-126.7-16.6-342.1-67.4C147.3 130.7 0 130 0 130h0"/><path opacity=".66" fill="none" stroke="#F7A202" stroke-miterlimit="20" d="M548 201c-133-6.4-106.6-6-321.9-56.1C167.4 131.3 0 131 0 131h0"/><path opacity=".66" fill="none" stroke="#F7A202" stroke-miterlimit="20" d="M548 189.6c-133-6.3-182.4-27.1-342.1-52-77.6-12.1-205.9-8-205.9-8h0"/><path opacity=".66" fill="none" stroke="#F7A202" stroke-miterlimit="20" d="M548 179.7c-133-6.3-243.3-45.5-376.5-52.9C74.8 121.5 0 129.5 0 129.5h0"/><path opacity=".66" fill="none" stroke="#F7A202" stroke-miterlimit="20" d="M548 169.7c-133-6.2-177.8-31.9-311-39.1-96.7-5.3-237-.9-237-.9h0"/><path opacity=".66" fill="none" stroke="#F7A202" stroke-miterlimit="20" d="M548 155.6c-133-6.2-201.7-23.5-279-29.6-79.4-6.2-269 3.5-269 3.5h0"/><path opacity=".66" fill="none" stroke="#F7A202" stroke-miterlimit="20" d="M548 146.6c-133-6.6-163.9-16.3-241.2-22.7-79.4-6.6-306.8 6-306.8 6h0M548 246c-133-6.4-168.8-44-384.1-94.3C105.2 137.9 0 130 0 130h0"/><path opacity=".66" fill="none" stroke="#FCBB54" stroke-miterlimit="20" d="M548 103c-86.6 1.3-548 27-548 27M548 123.8C356.4 111.8 0 130 0 130M548 114.3C349.4 111.8 7 130 7 130"/></svg>