<svg xmlns="http://www.w3.org/2000/svg" width="111" height="100" viewBox="0 0 111 100"><defs><linearGradient id="a" x1="55.17" x2="55.17" y1=".03" y2="98.1" gradientUnits="userSpaceOnUse"><stop offset="0" stop-color="#4387fd"/><stop offset="1" stop-color="#4683ea"/></linearGradient></defs><path fill="url(#a)" d="M23.958 93.291L1.328 54.095a9.913 9.913 0 010-9.913l22.63-39.196A9.913 9.913 0 0132.543.03h45.26a9.913 9.913 0 018.584 4.956l22.63 39.196a9.913 9.913 0 010 9.913l-22.63 39.196a9.913 9.913 0 01-8.585 4.957h-45.26a9.913 9.913 0 01-8.584-4.957z"/><path d="M106.945 65.399L77.27 35.723 55.176 25.86 34.055 37.336l-.885 25.287 36.674 36.675 14.355-.126z" opacity=".07"/><path fill="#fff" d="M73.95 58.66zm-7.12-4.11V43.72l-10.516 6.07v12.143l9.379-5.415 7.12 4.11-17.636 10.183L37.54 60.63l7.121-4.111 9.38 5.415V49.79l-10.518-6.07v10.83l-7.12 4.11V38.297L54.04 28.113v8.223l-9.379 5.415 10.516 6.07 10.516-6.07-9.38-5.415v-8.223l17.638 10.183V58.66zm9.921-19.214l-20.41-11.784a2.326 2.326 0 00-2.327 0l-20.41 11.784a2.326 2.326 0 00-1.164 2.014v23.57c0 .83.443 1.599 1.163 2.014l20.41 11.785a2.33 2.33 0 002.327 0l20.41-11.785a2.326 2.326 0 001.164-2.014V37.35c0-.83-.443-1.599-1.163-2.014z"/></svg>