<svg version="1.1" id="Слой_1" xmlns="http://www.w3.org/2000/svg" x="0" y="0" viewBox="0 0 190.861 69.834" xml:space="preserve"><style>.st1{fill:#231f20}.st3{fill:#fff}</style><path d="M62.785 16.487c3.28-6.579 2.199-11.86 2.15-12.089l-.401-1.863-1.508 1.164c-.049.037-4.61 3.543-7.695 4.687C49.457 3.844 42.209 1.35 34.85 1.35h-.06a33.321 33.321 0 00-20.132 6.805c-2.559-.747-6.712-3.706-8.187-4.858l-1.5-1.172-.413 1.859c-.052.235-1.197 5.658 2.34 12.443-3.634 5.439-5.551 11.816-5.551 18.491 0 18.508 15.028 33.567 33.5 33.567s33.5-15.058 33.5-33.567c0-6.542-1.92-12.898-5.562-18.431z" fill="#aedede"/><path class="st1" d="M48.087 38.934h.044c6.873-.012 12.435-5.594 12.423-12.467 0-6.902-5.565-12.537-12.467-12.537h-.044c-6.873.012-12.435 5.594-12.423 12.467 0 6.902 5.564 12.537 12.467 12.537z"/><path class="st1" d="M63.908 15.746C67.32 8.902 66.196 3.408 66.145 3.17l-.417-1.938-1.569 1.211c-.051.039-4.796 3.685-8.005 4.875C50.044 2.594 42.505 0 34.85 0h-.062a34.655 34.655 0 00-20.941 7.079c-2.663-.777-6.983-3.855-8.517-5.053L3.769.807 3.34 2.74c-.054.244-1.245 5.885 2.434 12.943C1.994 21.341 0 27.974 0 34.917 0 54.17 15.632 69.834 34.847 69.834S69.695 54.17 69.695 34.917c0-6.804-1.998-13.416-5.787-19.171zM34.847 67.334C17.011 67.334 2.5 52.792 2.5 34.917c0-6.69 1.992-13.067 5.76-18.439l.451-.643-.383-.685c-2.271-4.057-2.704-7.655-2.705-9.798 2.17 1.537 5.756 3.846 8.292 4.312l.558.103.444-.352A32.128 32.128 0 0134.79 2.5h.057c7.316 0 14.517 2.553 20.276 7.189l.504.406.623-.178c2.39-.683 5.608-2.76 7.604-4.157-.001 2.094-.405 5.574-2.498 9.478l-.36.672.432.628c3.772 5.48 5.767 11.836 5.767 18.379 0 17.875-14.511 32.417-32.348 32.417z"/><path class="st1" d="M21.607 38.864c6.902.07 12.537-5.565 12.537-12.467 0-6.903-5.635-12.467-12.537-12.467h-.044c-6.873.012-12.435 5.594-12.423 12.467v.044c.012 6.873 5.594 12.435 12.467 12.423zm39.871 4.097H8.37a1.25 1.25 0 000 2.5h3.94v5.444h9.86v-5.444h2.11v11.643h9.86V45.461h1.62v13.051h9.86V45.461h2.05v3.472h9.86v-3.472h3.948a1.25 1.25 0 000-2.5z"/><path d="M47.17 24.565l.986-8.875.845 8.945-1.831-.07zm-26.48 0l.986-8.875.845 8.945-1.831-.07z" fill="#ce2229"/><path class="st3" d="M99.79 26.818h5v27.61h6.2v-27.61h4.93V20.62H99.79v6.198zm35.36 0h4.93v27.61h6.199v-27.61h5V20.62H135.15v6.198zM123.736 41.82l1.197-12.889h.916l1.197 12.89-3.31-.001zm-2.747-21.2l-4.649 33.809h6.198l.634-6.41h4.508l.634 6.41h6.198l-4.649-33.809h-8.874zm63.604 25.079c0 3.38-3.522 3.31-4.015 3.31V20.483c.493 0 4.015-.07 4.015 3.31v21.906zm.704-30.639H174.45v33.95h-.07v5.493h10.917c2.888 0 5.283-2.254 5.494-5.071h.07l-.07-29.019a5.472 5.472 0 00-5.494-5.353zM168.811 39.003l-4.578-3.944-1.902-1.62c-1.338-1.127-2.113-2.818-2.042-4.579l.07-2.042a1.966 1.966 0 011.902-1.48c.915 0 1.69.635 1.902 1.48v.845l-.07 4.156 6.197-2.184v-4.014c0-.071 0-.141-.07-.212v-.14c0-.071-.07-.212-.07-.282-.775-2.466-3.1-4.297-5.847-4.297h-4.085c-3.099 0-5.635 2.254-6.128 5.212v.211c0 .141 0 .282-.07.423V32.1a5.39 5.39 0 001.831 4.015l4.367 3.733 2.818 2.395c.704.634 1.127 1.48 1.127 2.465v3.733c-.212.845-1.057 1.48-1.973 1.48-.915 0-1.76-.635-2.042-1.48v-5.987l-5.917 1.409-.14 4.578v.07c0 1.057.281 2.043.774 2.959.141.211.212.352.352.563 0 0 0 .07.07.07 0 .071.071.071.071.142.07.07.07.14.141.211 1.127 1.338 2.747 2.183 4.649 2.183h3.944c3.381 0 6.198-2.817 6.198-6.198v-5.987c.141-1.338-.422-2.606-1.479-3.451zM96.48 34.782l-4.577-3.945-3.03-2.324c-1.478-1.48-.985-3.522-.915-5.283l.07-2.042a1.966 1.966 0 011.902-1.48c.916 0 1.69.635 1.902 1.48v.845l-.07 4.156 6.198-2.184v-4.014c0-.071 0-.141-.07-.212v-.14c0-.071-.07-.212-.07-.282-.776-2.466-3.1-4.297-5.847-4.297h-4.015c-3.099 0-5.635 2.254-6.128 5.212v.211c0 .141 0 .282-.07.423v5.564c0 1.55.704 4.438 1.831 5.424l4.367 3.733 2.818 2.395c.704.634 1.127 1.479 1.127 2.465v7.959c-.212.845-1.057 1.48-1.973 1.48-.915 0-1.76-.635-2.042-1.48v-8.1l-5.917 1.409-.14 6.69v.072c0 1.057.281 2.043.774 2.959.141.21.212.352.352.563 0 0 0 .07.07.07 0 .071.071.071.071.141.07.07.07.141.141.212 1.127 1.338 2.747 2.183 4.649 2.183h3.944c3.381 0 6.198-2.817 6.198-6.198V38.233c.07-1.338-.563-2.606-1.55-3.451z"/></svg>