<?xml version="1.0" standalone="no"?>
<!DOCTYPE svg PUBLIC "-//W3C//DTD SVG 20010904//EN"
 "http://www.w3.org/TR/2001/REC-SVG-20010904/DTD/svg10.dtd">
<svg version="1.0" xmlns="http://www.w3.org/2000/svg"
 width="512.000000pt" height="512.000000pt" viewBox="0 0 512.000000 512.000000"
 preserveAspectRatio="xMidYMid meet">
<metadata>
Created by potrace 1.11, written by Peter Selinger 2001-2013
</metadata>
<g transform="translate(0.000000,512.000000) scale(0.100000,-0.100000)"
fill="#000000" stroke="none">
<path d="M2448 5095 c-2 -1 -46 -5 -98 -9 -52 -3 -104 -8 -115 -10 -11 -2 -40
-7 -65 -11 -25 -4 -54 -9 -65 -11 -11 -2 -33 -7 -50 -10 -24 -4 -129 -30 -235
-59 -17 -4 -139 -48 -190 -67 -291 -113 -617 -326 -844 -554 -118 -117 -316
-358 -316 -383 0 -6 -5 -11 -10 -11 -6 0 -14 -8 -18 -17 -4 -10 -33 -62 -66
-116 -121 -204 -238 -498 -281 -705 -53 -261 -60 -322 -60 -577 0 -193 5 -278
25 -395 5 -30 12 -69 15 -87 31 -189 143 -507 246 -699 57 -107 56 -107 137
-227 131 -197 315 -401 492 -548 67 -55 73 -59 175 -132 274 -192 634 -344
949 -402 120 -22 136 -24 196 -30 30 -3 71 -8 90 -11 43 -6 360 -6 415 1 22 2
67 7 100 10 33 3 67 7 75 10 8 2 37 6 64 10 27 3 53 8 56 10 4 2 22 7 41 10
114 20 305 81 459 146 82 35 279 137 328 170 24 16 47 29 53 29 5 0 9 5 9 10
0 6 7 10 15 10 8 0 15 4 15 8 0 5 10 14 23 19 78 36 386 315 504 458 75 89
233 313 233 329 0 3 15 29 33 58 129 206 270 618 302 883 3 28 8 66 11 85 3
19 7 127 9 240 3 184 -6 327 -29 458 -3 17 -8 45 -11 62 -8 45 -61 247 -83
315 -46 141 -124 316 -200 450 -43 75 -188 294 -201 305 -4 3 -28 32 -55 65
-62 78 -185 206 -265 275 -35 30 -69 60 -75 65 -6 6 -31 26 -56 45 -25 19 -47
37 -50 40 -3 3 -12 10 -21 15 -9 6 -49 33 -90 60 -116 79 -313 183 -443 234
-85 35 -240 87 -276 95 -14 3 -50 12 -80 20 -57 16 -256 51 -349 61 -54 7
-367 15 -373 10z"/>
</g>
</svg>
