<svg xmlns="http://www.w3.org/2000/svg" width="39.75" height="10.727" viewBox="0.25 14.759 39.75 10.727"><path fill="#53C3EB" d="M12.328 18.617h-.819c-.072 0-.108.033-.108.096v4.704c0 .064.036.097.108.097h.819c.072 0 .108-.032.108-.097v-4.704c0-.064-.037-.096-.108-.096zM11.907 16.616a.719.719 0 00-.496.173.568.568 0 00-.194.442c0 .18.064.328.194.443s.295.173.496.173c.202 0 .367-.058.496-.173s.194-.263.194-.443a.569.569 0 00-.189-.447c-.125-.112-.292-.168-.501-.168zM15.649 18.55c-.467 0-.831.141-1.089.423-.015.019-.029.027-.043.024-.014-.003-.021-.011-.021-.024v-.26c0-.063-.036-.096-.108-.096h-.82c-.072 0-.108.033-.108.096v4.704c0 .064.036.097.108.097h.82c.072 0 .108-.032.108-.097v-3.184c.007 0 .011-.019.011-.058.015-.263.088-.467.221-.611.133-.145.318-.216.555-.216.23 0 .41.074.54.221s.194.356.194.625v3.223c0 .064.036.097.108.097h.82c.072 0 .108-.032.108-.097v-3.299c0-.5-.12-.887-.361-1.16-.243-.272-.589-.408-1.043-.408zM21.365 18.617h-.82c-.071 0-.107.033-.107.096v.25c0 .013-.005.023-.017.029-.011.006-.023.003-.038-.009-.23-.295-.579-.442-1.046-.442s-.831.136-1.089.409c-.259.272-.389.646-.389 1.121v1.925c0 .468.128.838.383 1.11.255.272.62.409 1.095.409.453 0 .802-.148 1.046-.442.014-.013.027-.019.038-.015s.017.012.017.023v.203c0 .48-.11.834-.329 1.063-.219.228-.624.332-1.213.313-.079 0-.119.032-.119.096v.616c0 .063.036.1.108.106l.291.009c.841 0 1.435-.185 1.779-.554.346-.368.518-.889.518-1.563v-4.656c0-.065-.035-.097-.108-.097zm-.927 3.319c0 .23-.07.418-.21.563s-.326.217-.556.217-.417-.072-.561-.217a.764.764 0 01-.216-.563v-1.808a.78.78 0 01.216-.568c.144-.147.331-.221.561-.221s.416.074.556.221c.14.148.21.337.21.568v1.808zM24.902 18.675a.952.952 0 00-.464-.106c-.46 0-.794.237-1.003.711-.008.02-.016.027-.027.024-.011-.003-.016-.015-.016-.034v-.558c0-.063-.036-.096-.107-.096h-.82c-.072 0-.107.033-.107.096v4.704c0 .064.035.097.107.097h.82c.071 0 .107-.032.107-.097v-2.81c0-.282.073-.522.221-.721a.755.755 0 01.556-.327.922.922 0 01.495.028c.08.019.123 0 .131-.058l.161-.731c.015-.055-.003-.097-.054-.122zM27.21 18.54c-.489 0-.899.128-1.229.385-.331.256-.514.59-.551 1 0 .064.037.096.108.096h.874c.07 0 .107-.032.107-.096a.657.657 0 01.215-.423.657.657 0 01.453-.164c.23 0 .417.082.561.245.145.164.217.38.217.649v.279c0 .025-.016.039-.043.039h-.627c-.611 0-1.105.129-1.482.389s-.566.669-.566 1.227c0 .533.156.903.469 1.111.313.209.674.313 1.084.313.489 0 .859-.135 1.111-.403.014-.013.027-.017.037-.01a.031.031 0 01.017.028v.212c0 .064.036.097.108.097h.819c.071 0 .107-.032.107-.097v-3.271c0-.481-.167-.869-.501-1.164s-.764-.442-1.288-.442zm.755 3.435a.706.706 0 01-.28.596 1.06 1.06 0 01-.658.212c-.216 0-.388-.058-.518-.173s-.194-.289-.194-.52c0-.264.086-.464.26-.602.172-.138.402-.207.689-.207h.658c.029 0 .043.014.043.039v.655zM30.855 18.617h-.82c-.071 0-.107.033-.107.096v4.704c0 .064.036.097.107.097h.82c.071 0 .107-.032.107-.097v-4.704c.001-.064-.035-.096-.107-.096zM30.435 16.616a.72.72 0 00-.496.173.565.565 0 00-.194.442c0 .18.064.328.194.443s.295.173.496.173.366-.058.496-.173.194-.263.194-.443a.569.569 0 00-.189-.447c-.125-.112-.293-.168-.501-.168zM34.177 18.55c-.468 0-.831.141-1.089.423-.016.019-.029.027-.044.024-.015-.003-.021-.011-.021-.024v-.26c0-.063-.037-.096-.108-.096h-.819c-.072 0-.107.033-.107.096v4.704c0 .064.035.097.107.097h.819c.071 0 .108-.032.108-.097v-3.184c.006 0 .01-.019.01-.058.015-.263.088-.467.221-.611.133-.145.318-.216.557-.216.229 0 .409.074.539.221.129.147.193.356.193.625v3.223c0 .064.036.097.107.097h.82c.071 0 .107-.032.107-.097v-3.299c0-.5-.12-.887-.361-1.16-.239-.272-.587-.408-1.039-.408zM39.893 16.779h-.82c-.071 0-.107.032-.107.096v1.991a.031.031 0 01-.017.029c-.011.006-.023.004-.038-.009a1.4 1.4 0 00-.463-.26 1.626 1.626 0 00-.518-.086c-.475 0-.851.136-1.127.409-.277.272-.416.646-.416 1.121v2.001c0 .455.139.822.416 1.102.276.279.652.418 1.127.418.172 0 .345-.028.518-.086.172-.058.327-.145.463-.26.015-.013.027-.016.038-.01s.017.016.017.029v.153c0 .064.036.097.107.097h.82c.071 0 .107-.032.107-.097v-6.542c0-.063-.035-.096-.107-.096zm-.928 5.368a.727.727 0 01-.254.466.764.764 0 01-.512.178.76.76 0 01-.566-.221.772.772 0 01-.221-.567v-1.875c0-.231.074-.42.221-.568a.767.767 0 01.566-.221c.201 0 .373.06.512.178a.73.73 0 01.254.466v2.164zM4.754 21.506l1.96-.836-1.96-.726v1.562zm0-4.836v1.213l1.298.49v.42l-1.298-.502v1.307l1.96.798v-2.925l-1.96-.801z"/><path fill="#53C3EB" d="M4.752 22.873v-1.369l-1.98-.834 1.98-.728v-.346l-.01-.008-1.968.806v-2.925l.654-.264v1.672l1.323-.59.003.002v-.406h-.002l-1.076.49-.014-1.263 1.086-.439h.003v-1.023a3.611 3.611 0 01.001 7.225zm0-8.115h-.003a4.5 4.5 0 000 9h.003A4.5 4.5 0 009.25 19.26a4.505 4.505 0 00-4.498-4.502z"/><path fill="#53C3EB" d="M4.754 19.946v1.56l1.96-.836-1.96-.724zm0-3.276v1.213l1.298.49v.42l-1.298-.502v1.307l1.96.798v-2.925l-1.96-.801z"/><path fill="#53C3EB" d="M6.714 20.672l-1.96.834v-1.56l1.96.726zM6.714 17.471v2.925l-1.96-.798v-1.307l1.3.502v-.42l-1.3-.49V16.67l1.96.801z"/></svg>