<svg xmlns="http://www.w3.org/2000/svg" width="100" height="100" viewBox="0 0 100 100"><path fill="#fff" d="M44.137 46.528L63.38 61.687 50.642 30.244zM73.255 68.93c.216.575.336 1.114.336 1.452 0 2.077-1.677 3.517-3.597 3.517-.959 0-1.697-.374-2.719-1.2L41.868 52.172l-8.514 21.327h-7.359L47.52 21.77c.56-1.36 1.777-2.08 3.12-2.08 1.343 0 2.475.72 3.035 2.08l19.582 47.162zM99.042 49.4C99.042 22.214 76.998.17 49.81.17 22.623.17.58 22.21.58 49.4c0 27.192 22.04 49.232 49.23 49.232 27.192 0 49.232-22.04 49.232-49.231"/></svg>