<svg xmlns="http://www.w3.org/2000/svg" width="29" height="40" viewBox="0 0 29 40"><path fill="#53c5ee" d="M23.738 7.78l-9.391 9.39-9.392-9.347A1.903 1.903 0 014.39 6.43V4.083h19.913v2.305a2.01 2.01 0 01-.565 1.391zm.565 25.825v2.348H4.39v-2.348c0-.522.217-1.043.565-1.391l9.392-9.391 9.39 9.347a2.2 2.2 0 01.566 1.435zm4-27.217V2.04c0-1.087-.913-2-2-2H2.39c-1.087 0-2 .913-2 2v4.348c0 1.565.652 3.13 1.74 4.217l9.39 9.392-9.347 9.39a5.882 5.882 0 00-1.74 4.218v4.305c0 1.087.914 2 2 2h23.914c1.086 0 2-.913 2-2v-4.305a5.882 5.882 0 00-1.74-4.217l-9.434-9.391 9.347-9.392a5.925 5.925 0 001.783-4.217z"/><path fill="#fcbb54" d="M8.39 33.96l5.957-6 5.956 6z"/></svg>