<svg xmlns="http://www.w3.org/2000/svg" width="40" height="40" viewBox="0 0 40 40"><path fill="#53c5ee" d="M39.439 24.802v11.606a3.075 3.075 0 01-3.088 3.088h-11.55a3.075 3.075 0 01-3.087-3.088v-11.55a3.075 3.075 0 013.088-3.087h11.55c1.714 0 3.087 1.373 3.087 3.03zm-3.096-.516H24.8a.512.512 0 00-.514.514v11.543c0 .286.228.514.514.514h11.543a.512.512 0 00.514-.514V24.8a.512.512 0 00-.514-.514m-18.629.516v11.606a3.074 3.074 0 01-3.085 3.088H3.086A3.074 3.074 0 010 36.408v-11.55a3.074 3.074 0 013.086-3.087h11.543c1.714 0 3.085 1.373 3.085 3.03zm-3.085-.516H3.086a.512.512 0 00-.515.514v11.543c0 .286.229.514.515.514h11.543a.512.512 0 00.514-.514V24.8a.512.512 0 00-.514-.514m3.085-21.2v11.543a3.073 3.073 0 01-3.085 3.085H3.086A3.073 3.073 0 010 14.63V3.086A3.073 3.073 0 013.086 0h11.543c1.714 0 3.085 1.429 3.085 3.086zM14.63 2.57H3.086a.512.512 0 00-.515.515v11.543c0 .285.229.514.515.514h11.543a.512.512 0 00.514-.514V3.086a.512.512 0 00-.514-.515"/><path fill="#fcbb54" d="M36.629 18.004H25.086A3.073 3.073 0 0122 14.92V3.376A3.073 3.073 0 0125.086.29h11.543a3.073 3.073 0 013.085 3.086v11.543a3.073 3.073 0 01-3.085 3.085z"/></svg>