<?xml version="1.0" encoding="utf-8"?>
<!-- Generator: Adobe Illustrator 24.1.0, SVG Export Plug-In . SVG Version: 6.00 Build 0)  -->
<svg version="1.1" id="Layer_1" xmlns="http://www.w3.org/2000/svg" xmlns:xlink="http://www.w3.org/1999/xlink" x="0px" y="0px"
	 viewBox="0 0 192 71" style="enable-background:new 0 0 192 71;" xml:space="preserve">
<style type="text/css">
	.st0{fill:#FFFFFF;}
	.st1{fill:#AEDEDE;stroke:#231F20;stroke-width:2.5;}
	.st2{fill:#231F20;}
	.st3{fill:#CE2229;}
	.st4{fill:none;stroke:#231F20;stroke-linecap:round;}
	.st5{fill:none;stroke:#231F20;stroke-width:2.5;stroke-linecap:round;}
</style>
<circle class="st0" cx="35.10422" cy="35.80856" r="32.44606"/>
<desc>Created with Sketch.</desc>
<g id="v1">
	<g id="InGRAINd---home" transform="translate(-544.000000, -3483.000000)">
		<g id="Integrations" transform="translate(0.000000, 3040.000000)">
			<g id="statsD" transform="translate(501.000000, 382.000000)">
				<g id="statsD-02" transform="translate(45.000000, 63.000000)">
					<path id="Path" class="st1" d="M61.41889,14.72081c3.66259-6.83215,2.46521-12.39647,2.46521-12.39647
						s-5.56432,4.2965-9.01562,5.28259c-5.77563-4.64868-13.10081-7.46606-21.05991-7.46606
						c-7.81823,0-15.00255,2.67651-20.70774,7.18432C9.64953,6.69128,3.52173,1.90173,3.52173,1.90173
						S2.2539,7.60693,6.19824,14.65038C2.39477,20.07383,0.2113,26.69468,0.2113,33.80856
						c0,18.59471,15.07298,33.66769,33.59726,33.66769s33.59726-15.07299,33.59726-33.66769
						C67.40582,26.76511,65.15192,20.14427,61.41889,14.72081z"/>
					<g id="Group" transform="translate(7.747795, 12.678211)">
						<g>
							<path id="Path_1_" class="st0" d="M12.81908,24.22947c-6.40954,0-11.62169-5.21215-11.62169-11.62169
								S6.40954,0.98608,12.81908,0.98608s11.62169,5.21215,11.62169,11.62169S19.22862,24.22947,12.81908,24.22947z"/>
							<path id="Shape" class="st2" d="M12.81908,1.90173c5.9165,0,10.70604,4.78955,10.70604,10.70605
								s-4.78955,10.70604-10.70604,10.70604S2.11304,18.52427,2.11304,12.60778S6.90258,1.90173,12.81908,1.90173
								 M12.81908,0.14087c-6.90258,0-12.46691,5.56433-12.46691,12.46691S5.9165,25.07468,12.81908,25.07468
								c6.90258,0.07043,12.53734-5.56433,12.53734-12.46691S19.72166,0.14087,12.81908,0.14087L12.81908,0.14087z"/>
						</g>
						<polygon id="Path_2_" class="st3" points="11.90343,10.77648 12.88951,1.90173 13.73473,10.84691 						"/>
						<circle id="Oval" class="st2" cx="12.81908" cy="12.60778" r="2.32434"/>
						<line id="Path_3_" class="st4" x1="19.51036" y1="15.07298" x2="23.17295" y2="17.32689"/>
						<line id="Path_4_" class="st4" x1="19.93296" y1="12.60778" x2="24.22947" y2="12.60778"/>
						<line id="Path_5_" class="st4" x1="19.36949" y1="9.64953" x2="23.38425" y2="8.09997"/>
						<line id="Path_6_" class="st4" x1="18.10167" y1="6.90258" x2="20.84861" y2="4.15564"/>
						<line id="Path_7_" class="st4" x1="15.9182" y1="5.35302" x2="17.46776" y2="1.8313"/>
						<line id="Path_8_" class="st4" x1="6.40954" y1="15.14342" x2="2.74695" y2="17.39732"/>
						<line id="Path_9_" class="st4" x1="5.77563" y1="12.67821" x2="1.47912" y2="12.67821"/>
						<line id="Path_10_" class="st4" x1="6.26867" y1="9.71996" x2="2.32434" y2="8.09997"/>
						<line id="Path_11_" class="st4" x1="7.81823" y1="6.97302" x2="5.14172" y2="4.22607"/>
						<line id="Path_12_" class="st4" x1="10.0017" y1="5.42346" x2="8.45214" y2="1.90173"/>
					</g>
					<g id="Group_1_" transform="translate(34.512907, 12.678211)">
						<g>
							<path id="Path_13_" class="st0" d="M12.53734,24.22947c-6.40954,0-11.62169-5.21215-11.62169-11.62169
								S6.1278,0.98608,12.53734,0.98608s11.62169,5.21215,11.62169,11.62169S18.94688,24.22947,12.53734,24.22947z"/>
							<path id="Shape_1_" class="st2" d="M12.53734,1.90173c5.9165,0,10.70604,4.78955,10.70604,10.70605
								s-4.78955,10.70604-10.70604,10.70604S1.8313,18.52427,1.8313,12.60778S6.62084,1.90173,12.53734,1.90173 M12.53734,0.14087
								c-6.90258,0-12.46691,5.56433-12.46691,12.46691s5.56433,12.53734,12.46691,12.53734s12.46691-5.56433,12.46691-12.46691
								S19.43992,0.14087,12.53734,0.14087L12.53734,0.14087z"/>
						</g>
						<polygon id="Path_14_" class="st3" points="11.62169,10.77648 12.60778,1.90173 13.45299,10.84691 						"/>
						<circle id="Oval_1_" class="st2" cx="12.53734" cy="12.60778" r="2.32434"/>
						<line id="Path_15_" class="st4" x1="19.22862" y1="15.07298" x2="22.89121" y2="17.32689"/>
						<line id="Path_16_" class="st4" x1="19.65123" y1="12.60778" x2="23.94773" y2="12.60778"/>
						<line id="Path_17_" class="st4" x1="19.08775" y1="9.64953" x2="23.10252" y2="8.09997"/>
						<line id="Path_18_" class="st4" x1="17.81993" y1="6.90258" x2="20.56688" y2="4.15564"/>
						<line id="Path_19_" class="st4" x1="15.63646" y1="5.35302" x2="17.18602" y2="1.8313"/>
						<line id="Path_20_" class="st4" x1="6.1278" y1="15.14342" x2="2.46521" y2="17.39732"/>
						<line id="Path_21_" class="st4" x1="5.49389" y1="12.67821" x2="1.19739" y2="12.67821"/>
						<line id="Path_22_" class="st4" x1="5.98693" y1="9.71996" x2="2.0426" y2="8.09997"/>
						<line id="Path_23_" class="st4" x1="7.53649" y1="6.97302" x2="4.85998" y2="4.22607"/>
						<line id="Path_24_" class="st4" x1="9.71996" y1="5.42346" x2="8.1704" y2="1.90173"/>
					</g>
					<line id="Path_25_" class="st5" x1="7.32519" y1="43.10592" x2="60.4328" y2="43.10592"/>
					<g id="Group_2_" transform="translate(11.269521, 42.260702)">
						<rect id="Rectangle" x="0.91565" y="0.91565" class="st0" width="8.09997" height="5.77563"/>
						<path id="Shape_2_" class="st2" d="M8.09997,1.76086v4.01477H1.76086V1.76086H8.09997 M9.86083,0H0v7.53649h9.86083V0
							L9.86083,0z"/>
					</g>
					<g id="Group_3_" transform="translate(23.243386, 42.260702)">
						<rect id="Rectangle_1_" x="0.91565" y="0.91565" class="st0" width="8.09997" height="11.97387"/>
						<path id="Shape_3_" class="st2" d="M8.09997,1.76086v10.213H1.76086v-10.213H8.09997 M9.86083,0H0v13.73473h9.86083V0
							L9.86083,0z"/>
					</g>
					<g id="Group_4_" transform="translate(34.512907, 42.260702)">
						<rect id="Rectangle_2_" x="1.12695" y="0.91565" class="st0" width="8.09997" height="13.38256"/>
						<path id="Shape_4_" class="st2" d="M8.31127,1.76086v11.62169H1.97217V1.76086H8.31127 M10.07213,0H0.2113v15.14342h9.86083V0
							L10.07213,0z"/>
					</g>
					<g id="Group_5_" transform="translate(46.486772, 42.260702)">
						<rect id="Rectangle_3_" x="1.05652" y="0.91565" class="st0" width="8.09997" height="3.80346"/>
						<path id="Shape_5_" class="st2" d="M8.24084,1.76086v2.0426H1.90173v-2.0426H8.24084 M10.0017,0H0.14087v5.56433h9.86083V0
							L10.0017,0z"/>
					</g>
					<g id="Group_6_" transform="translate(80.295334, 13.382556)">
						<polygon id="Path_26_" class="st0" points="18.45384,12.32604 23.45469,12.32604 23.45469,39.93636 29.65293,39.93636 
							29.65293,12.32604 34.58334,12.32604 34.58334,6.1278 18.45384,6.1278 						"/>
						<polygon id="Path_27_" class="st0" points="53.81196,12.32604 58.74237,12.32604 58.74237,39.93636 64.94061,39.93636 
							64.94061,12.32604 69.94146,12.32604 69.94146,6.1278 53.81196,6.1278 						"/>
						<path id="Shape_6_" class="st0" d="M44.44417,6.1278h-0.63391h-4.15564l-4.64868,33.80856h6.19824l0.63391-6.40954h4.50781
							l0.63391,6.40954h6.19824L48.52937,6.1278H44.44417z M42.40157,27.32859l1.19738-12.88951h0.91565l1.19739,12.88951H42.40157z
							"/>
						<path id="Shape_7_" class="st0" d="M109.45522,5.9165c-0.07043-2.95825-2.4652-5.35302-5.49389-5.35302h-4.64867h-6.19824
							v5.49389v28.45554h-0.07043v5.49389h10.91735c2.88782,0,5.28259-2.2539,5.49389-5.07129h0.07043L109.45522,5.9165
							L109.45522,5.9165z M103.25698,31.20249c0,3.38085-3.52172,3.31053-4.01476,3.31053V5.98682
							c0.49304,0,4.01476-0.07032,4.01476,3.31053V31.20249z"/>
						<path id="Path_28_" class="st0" d="M87.47965,24.51121l-4.57824-3.94433l-1.90173-1.61999
							c-1.33826-1.12695-2.11304-2.81738-2.0426-4.57824l0.07043-2.0426c0.2113-0.84521,0.98608-1.47913,1.90173-1.47913
							s1.69043,0.63391,1.90173,1.47913v0.84521l-0.07043,4.15563l6.19823-2.18347v-2.81738V12.2556c0-0.2113,0-0.35217,0-0.56348
							c0-0.07043,0-0.14087,0-0.28174c0-0.07043,0-0.14087,0-0.2113v-0.07043c0-0.07043,0-0.14087-0.07043-0.2113
							c0-0.07043,0-0.14087,0-0.14087l0,0c0-0.07043-0.07043-0.2113-0.07043-0.28174l0,0
							c-0.77478-2.46521-3.09912-4.2965-5.84606-4.2965h-4.08521l0,0c-3.09911,0-5.63476,2.2539-6.1278,5.21215c0,0,0,0,0,0.07043
							c0,0,0,0.07043,0,0.14087c0,0.14087,0,0.28174-0.07043,0.42261l0,0l0,0v0.42261l0,0l0,0v5.14172
							c0,1.54956,0.70435,3.02868,1.8313,4.01477l4.36694,3.73303l2.81738,2.39477c0.70435,0.63391,1.12695,1.47913,1.12695,2.46521
							v2.88782v0.63391v0.2113c-0.2113,0.84521-1.05652,1.47912-1.97217,1.47912s-1.76086-0.63391-2.0426-1.47912V27.9625
							l-5.9165,1.40869l-0.14087,4.57825v0.07043c0,1.05651,0.28174,2.0426,0.77478,2.95825l0,0l0,0
							c0.14087,0.2113,0.2113,0.35217,0.35217,0.56348c0,0,0,0.07043,0.07043,0.07043c0,0.07043,0.07043,0.07043,0.07043,0.14087
							c0.07043,0.07043,0.07043,0.14087,0.14087,0.2113c1.12695,1.33825,2.74694,2.18347,4.64867,2.18347h3.94434
							c3.38085,0,6.19823-2.81738,6.19823-6.19823V27.9625C89.09965,26.62424,88.53617,25.35642,87.47965,24.51121z"/>
						<path id="Path_29_" class="st0" d="M15.14342,20.28514l-4.57824-3.94433l-3.02868-2.32434
							c-1.47912-1.47912-0.98608-3.52172-0.91565-5.28259l0.07043-2.0426c0.2113-0.84521,0.98608-1.47912,1.90173-1.47912
							c0.91565,0,1.69043,0.63391,1.90173,1.47912v0.84521l-0.07043,4.15564l6.19824-2.18347V6.69128V6.62084
							c0-0.2113,0-0.35217,0-0.56348c0-0.07043,0-0.14087,0-0.28174c0-0.07043,0-0.14087,0-0.2113V5.49389
							c0-0.07043,0-0.14087-0.07043-0.2113c0-0.07043,0-0.14087,0-0.14087l0,0c0-0.07043-0.07043-0.2113-0.07043-0.28174l0,0
							c-0.77478-2.46521-3.09912-4.2965-5.84606-4.2965H6.62084l0,0c-3.09912,0-5.63476,2.2539-6.1278,5.21215c0,0,0,0,0,0.07043
							c0,0,0,0.07043,0,0.14087c0,0.14087,0,0.28174-0.07043,0.42261l0,0l0,0v0.42261l0,0l0,0v5.14172
							c0,1.54956,0.70435,4.43737,1.8313,5.42346l4.36694,3.73303l2.81738,2.39477c0.70434,0.63391,1.12695,1.47913,1.12695,2.46521
							v7.11389v0.63391v0.2113c-0.2113,0.84521-1.05652,1.47912-1.97217,1.47912c-0.91565,0-1.76086-0.63391-2.0426-1.47912
							v-8.09997l-5.9165,1.40869l-0.14087,6.69128v0.07043c0,1.05651,0.28174,2.0426,0.77478,2.95825l0,0l0,0
							c0.14087,0.2113,0.2113,0.35217,0.35217,0.56348c0,0,0,0.07043,0.07043,0.07043c0,0.07043,0.07043,0.07043,0.07043,0.14087
							c0.07043,0.07043,0.07043,0.14087,0.14087,0.2113c1.12695,1.33825,2.74695,2.18347,4.64868,2.18347h3.94433
							c3.38086,0,6.19824-2.81738,6.19824-6.19823V23.73643C16.76341,22.39817,16.1295,21.13035,15.14342,20.28514z"/>
					</g>
				</g>
			</g>
		</g>
	</g>
</g>
</svg>
