<?xml version="1.0" encoding="UTF-8" standalone="no"?> <!-- Created with Vectornator for iOS (http://vectornator.io/) --><!DOCTYPE svg PUBLIC "-//W3C//DTD SVG 1.1//EN" "http://www.w3.org/Graphics/SVG/1.1/DTD/svg11.dtd">
<svg height="100%" style="fill-rule:nonzero;clip-rule:evenodd;stroke-linecap:round;stroke-linejoin:round;" xmlns:xlink="http://www.w3.org/1999/xlink" xmlns="http://www.w3.org/2000/svg" xml:space="preserve" width="100%" xmlns:vectornator="http://vectornator.io" version="1.1" viewBox="0 0 1061.53 408.817">
<metadata>
<vectornator:setting key="DimensionsVisible" value="1"/>
<vectornator:setting key="PencilOnly" value="0"/>
<vectornator:setting key="SnapToPoints" value="0"/>
<vectornator:setting key="OutlineMode" value="0"/>
<vectornator:setting key="CMYKEnabledKey" value="0"/>
<vectornator:setting key="RulersVisible" value="1"/>
<vectornator:setting key="SnapToEdges" value="0"/>
<vectornator:setting key="GuidesVisible" value="1"/>
<vectornator:setting key="DisplayWhiteBackground" value="0"/>
<vectornator:setting key="doHistoryDisabled" value="0"/>
<vectornator:setting key="SnapToGuides" value="1"/>
<vectornator:setting key="TimeLapseWatermarkDisabled" value="0"/>
<vectornator:setting key="Units" value="Points"/>
<vectornator:setting key="DynamicGuides" value="0"/>
<vectornator:setting key="IsolateActiveLayer" value="0"/>
<vectornator:setting key="SnapToGrid" value="0"/>
</metadata>
<defs/>
<g id="Untitled" vectornator:layerName="Untitled">
<path d="M471.358+255.328C470.526+254.418+470.091+253.213+470.151+251.982L470.151+183.076C470.1+181.884+470.559+180.727+471.413+179.893C472.323+179.062+473.528+178.628+474.759+178.687L514.698+178.687C515.81+178.618+516.907+178.971+517.771+179.674C518.537+180.418+518.938+181.461+518.868+182.527C518.924+183.558+518.523+184.562+517.771+185.269C516.907+185.973+515.81+186.326+514.698+186.258L479.038+186.258L479.038+212.92L512.504+212.92C513.616+212.851+514.713+213.204+515.576+213.908C516.343+214.653+516.744+215.695+516.674+216.761C516.73+217.792+516.328+218.796+515.576+219.504C514.713+220.207+513.616+220.559+512.504+220.491L479.038+220.491L479.038+251.982C479.098+253.204+478.685+254.402+477.886+255.328C477.043+256.2+475.861+256.661+474.649+256.591C473.423+256.654+472.227+256.195+471.358+255.328Z" opacity="1" fill="#ffffff"/>
<path d="M565.116+252.092C559.773+248.829+555.515+244.057+552.882+238.376C550.029+232.451+548.603+225.465+548.603+217.419C548.603+209.299+550.011+202.259+552.827+196.297C555.408+190.599+559.654+185.817+565.007+182.581C570.722+179.292+577.232+177.64+583.824+177.808C590.416+177.64+596.927+179.292+602.642+182.581C607.994+185.818+612.24+190.6+614.821+196.297C617.637+202.26+619.045+209.264+619.045+217.308C619.045+225.357+617.619+232.361+614.767+238.321C612.145+244.023+607.886+248.817+602.532+252.092C596.866+255.408+590.388+257.079+583.824+256.92C577.261+257.08+570.783+255.408+565.116+252.092ZM602.971+240.955C607.542+235.432+609.828+227.55+609.829+217.308C609.829+207.069+607.561+199.206+603.026+193.719C598.49+188.232+592.089+185.49+583.824+185.49C575.631+185.49+569.249+188.251+564.678+193.774C560.105+199.297+557.819+207.142+557.82+217.308C557.82+227.477+560.106+235.341+564.678+240.899C569.248+246.46+575.63+249.24+583.824+249.239C592.016+249.239+598.398+246.478+602.971+240.955Z" opacity="1" fill="#ffffff"/>
<path d="M718.125+179.399C718.891+180.342+719.282+181.533+719.223+182.746L719.223+251.982C719.283+253.204+718.87+254.402+718.07+255.328C717.227+256.2+716.045+256.661+714.834+256.591C713.401+256.571+712.06+255.88+711.213+254.724L665.678+193.828L665.678+251.982C665.737+253.204+665.325+254.402+664.525+255.328C663.718+256.186+662.575+256.647+661.398+256.591C660.236+256.655+659.107+256.191+658.326+255.328C657.559+254.386+657.169+253.195+657.229+251.982L657.229+182.746C657.17+181.524+657.582+180.326+658.381+179.399C659.225+178.528+660.407+178.067+661.618+178.138C663.085+178.14+664.466+178.831+665.348+180.003L710.774+240.899L710.774+182.746C710.715+181.524+711.127+180.326+711.927+179.399C712.734+178.542+713.877+178.081+715.053+178.138C716.215+178.074+717.344+178.537+718.125+179.399Z" opacity="1" fill="#ffffff"/>
<path d="M761.467+255.328C760.635+254.418+760.201+253.213+760.26+251.982L760.26+182.746C760.201+181.515+760.636+180.31+761.467+179.399C763.339+177.718+766.178+177.718+768.051+179.399C768.881+180.311+769.315+181.515+769.257+182.746L769.257+251.982C769.316+253.213+768.882+254.417+768.051+255.328C766.179+257.012+763.338+257.012+761.467+255.328Z" opacity="1" fill="#ffffff"/>
<path d="M823.954+252.092C818.61+248.83+814.353+244.057+811.72+238.376C808.867+232.451+807.44+225.465+807.44+217.419C807.44+209.299+808.848+202.259+811.665+196.297C814.245+190.599+818.492+185.817+823.844+182.581C835.582+176.218+849.741+176.218+861.479+182.581C866.831+185.818+871.077+190.6+873.659+196.297C876.474+202.26+877.882+209.264+877.883+217.308C877.883+225.357+876.456+232.361+873.604+238.321C870.982+244.023+866.724+248.817+861.37+252.092C849.729+258.529+835.596+258.529+823.954+252.092ZM861.808+240.955C866.379+235.432+868.665+227.55+868.667+217.308C868.667+207.069+866.399+199.206+861.863+193.719C857.327+188.232+850.927+185.49+842.662+185.49C834.468+185.49+828.086+188.251+823.515+193.774C818.943+199.297+816.657+207.142+816.658+217.308C816.658+227.477+818.943+235.341+823.515+240.899C828.086+246.46+834.468+249.24+842.662+249.239C850.853+249.239+857.235+246.478+861.808+240.955Z" opacity="1" fill="#ffffff"/>
<path d="M282.58+182.066C282.438+181.631+282.296+181.195+282.155+180.76C281.784+181.361+281.895+181.807+282.58+182.066Z" opacity="1" fill="#ffffff"/>
<path d="M281.346+178.099L281.434+178.387L281.346+178.099L281.596+177.6C281.596+177.6+281.175+177.336+281.166+177.331C281.17+177.343+281.194+177.727+281.194+177.727L281.346+178.099Z" opacity="1" fill="#ffffff"/>
<path d="M280.328+173.396L280.336+173.432L280.328+173.396C278.417+174.062+276.505+174.727+274.593+175.393C276.506+174.727+278.417+174.062+280.328+173.396Z" opacity="1" fill="#ffffff"/>
<path d="M154.812+353.215C161.256+363.305+169.348+371.828+180.627+377.255C183.95+378.898+187.272+380.542+190.595+382.186C187.272+380.542+183.951+378.898+180.63+377.253C169.349+371.827+161.256+363.305+154.812+353.215Z" opacity="1" fill="#ffffff"/>
<path d="M147.038+257.173L146.959+257.592C147.082+256.946+147.204+256.3+147.327+255.654C146.427+254.323+145.932+252.759+145.902+251.152C145.932+252.759+146.426+254.323+147.327+255.654C147.23+256.16+147.134+256.667+147.038+257.173Z" opacity="1" fill="#ffffff"/>
<path d="M131.68+265.225L131.701+265.378L131.685+265.6L131.701+265.378L131.68+265.225Z" opacity="1" fill="#ffffff"/>
<path d="M200.782+16.6623L200.782+16.6619C199.18+23.3049+197.569+29.9419+196.037+36.5998C197.569+29.942+199.18+23.3051+200.782+16.6623Z" opacity="1" fill="#ffffff"/>
<path d="M146.94+257.691L146.959+257.593L147.038+257.174L146.94+257.691Z" opacity="1" fill="#ffffff"/>
<path d="M274.593+175.393C271.275+165.822+268.703+156.032+265.943+146.291C268.703+156.032+271.274+165.821+274.593+175.393C274.501+177.028+274.763+178.664+275.36+180.19C274.763+178.664+274.502+177.028+274.593+175.393Z" opacity="1" fill="#ffffff"/>
<path d="M184.822+376.359C184.564+376.443+184.306+376.527+184.047+376.611C184.31+376.793+184.572+376.974+184.835+377.156C184.831+376.891+184.826+376.625+184.822+376.359Z" opacity="1" fill="#ffffff"/>
<path d="M146.882+260.87C147.458+275.288+148.886+289.66+151.158+303.91C148.886+289.66+147.458+275.288+146.882+260.87C149.256+259.885+151.809+259.406+154.379+259.465C151.809+259.406+149.256+259.885+146.882+260.87Z" opacity="1" fill="#ffffff"/>
<path d="M172.284+190.874C171.744+204.986+170.943+219.088+170.243+233.194C171.954+232.52+173.738+232.052+175.56+231.799C176.159+231.711+176.762+231.64+177.365+231.583C178.055+231.518+178.747+231.471+179.439+231.436C181.862+231.314+184.294+231.337+186.683+231.243C205.633+230.491+224.611+230.441+243.569+229.856C248.679+229.698+250.987+231.169+251.135+236.627C252.054+270.665+252.61+304.707+246.372+338.357C244.163+350.272+241.71+362.31+234.423+372.654C231.181+377.256+227.537+381.068+222.524+383.294C221.794+383.618+221.048+383.903+220.289+384.149C221.306+384.231+222.324+384.314+223.341+384.397C247.219+378.71+258.809+361.16+266.059+339.694C273.475+317.734+275.511+294.904+276.146+271.902C276.275+267.238+276.345+262.579+276.356+257.923C276.358+255.401+276.34+252.881+276.3+250.362C276.165+232.708+274.423+215.104+271.095+197.766C269.671+197.826+268.312+198.382+267.254+199.337C266.988+199.583+266.741+199.849+266.515+200.132C266.474+200.182+266.43+200.23+266.39+200.281C266.161+200.582+265.948+200.894+265.753+201.218C265.699+201.308+265.644+201.398+265.591+201.489C265.395+201.828+265.209+202.175+265.033+202.532C264.635+203.333+264.273+204.166+263.891+204.97C262.417+208.07+261.21+211.296+259.814+214.434C258.367+217.689+255.61+218.568+252.369+218.104C248.772+217.59+249.944+214.49+249.741+212.426C247.167+186.264+243.347+160.288+238.282+134.496C233+107.742+226.769+81.1392+219.865+54.7544C216.474+41.7936+213.937+28.4905+208.604+16.0593C205.791+14.0874+203.021+15.3155+200.246+16.1685C200.522+16.1488+200.761+16.3566+200.781+16.6325L200.782+16.6619L200.782+16.662L200.782+16.6624C199.18+23.3052+197.57+29.942+196.038+36.5999C195.527+38.8192+195.026+41.0411+194.535+43.2657C193.882+46.2322+193.253+49.2055+192.648+52.1855C187.39+78.1954+182.435+104.245+178.847+130.543C177.805+138.181+176.901+145.838+175.853+153.475" opacity="0.9" fill="#ffffff"/>
<path d="M222.524+383.294C227.537+381.068+231.181+377.256+234.423+372.654C241.71+362.31+244.163+350.272+246.372+338.357C252.61+304.707+252.054+270.665+251.135+236.627C250.987+231.169+248.679+229.698+243.569+229.856C224.61+230.441+205.633+230.491+186.683+231.243C184.294+231.337+181.862+231.314+179.439+231.436C178.747+231.471+178.055+231.518+177.365+231.583C176.762+231.64+176.159+231.711+175.56+231.799C173.738+232.052+171.954+232.52+170.243+233.195C170.33+236.928+170.686+240.664+170.905+244.399C170.978+245.643+171.035+246.888+171.062+248.133C171.075+248.705+171.081+249.277+171.08+249.85C171.114+253.208+170.737+256.558+169.957+259.825C172.923+265.632+172.057+272+172.452+278.135C173.979+301.842+177.194+325.198+183.246+348.273C187.047+362.762+194.043+374.563+205.221+384.173C205.583+384.394+206.035+384.404+206.406+384.199L208.121+384.463L208.593+384.477C208.653+384.385+208.754+384.328+208.864+384.326C208.975+384.323+209.079+384.376+209.143+384.465C212.84+385.131+216.635+385.023+220.288+384.149L220.289+384.148L220.288+384.148C221.048+383.903+221.794+383.618+222.524+383.294Z" opacity="1" fill="#ffffff"/>
<path d="M179.439+231.436C178.747+231.471+178.055+231.518+177.365+231.583" opacity="1" fill="#ffffff"/>
<path d="M175.559+231.799C173.738+232.052+171.954+232.52+170.243+233.194L170.243+233.195C171.953+232.52+173.738+232.052+175.559+231.799Z" opacity="1" fill="#ffffff"/>
<path d="M177.365+231.583C176.762+231.64+176.159+231.711+175.559+231.799" opacity="1" fill="#ffffff"/>
<path d="M220.288+384.149L220.289+384.149C221.048+383.903+221.794+383.618+222.524+383.294C221.794+383.618+221.048+383.903+220.288+384.149Z" opacity="1" fill="#ffffff"/>
<path d="M320.609+229.474C319.93+228.117+319.102+226.777+320.128+225.227C320.551+221.622+318.024+218.658+317.778+215.312C316.424+196.892+308.307+180.412+303.178+163.076C299.574+150.893+291.493+140.748+287.816+128.653C284.356+117.271+275.339+108.721+272.081+97.2625C271.848+96.6609+271.477+96.1225+270.998+95.6905C264.849+89.3569+262.138+80.8682+257.377+73.6362C253.946+68.4245+250.706+62.7237+247.088+57.8422C238.667+46.4786+231.708+34.1174+222.802+23.0977C220.404+20.1311+218.49+17.9687+214.524+18.924C213.629+22.3126+216.325+24.4872+217.433+27.1531C230.369+58.2734+242.75+89.6035+252.868+121.77C260.198+145.477+266.238+169.564+270.962+193.925C271.113+195.199+271.157+196.483+271.095+197.764L271.097+197.764C274.424+215.103+276.165+232.708+276.3+250.362C276.341+252.881+276.359+255.401+276.355+257.923C276.35+262.578+276.28+267.238+276.146+271.902C275.511+294.904+273.475+317.734+266.059+339.694C258.809+361.16+247.219+378.71+223.341+384.397C231.214+385.205+238.429+381.968+245.96+380.685C259.603+378.361+270.772+371.148+281.581+362.945C286.345+359.329+289.401+354.002+294.65+351.031C293.874+347.787+296.711+347.728+298.46+346.71C308.482+327.826+317.731+308.718+319.08+286.8C319.62+278.038+320.933+269.323+321.894+260.587C321.48+258.543+319.491+256.762+320.866+254.42C320.927+253.362+320.987+252.303+321.047+251.245M290.139+289.408C287.278+312.143+283.831+335.022+270.461+354.761C262.58+366.397+252.601+375.35+239.116+380.068C264.811+364.951+273.946+340.165+279.125+312.808C283.939+287.38+284.79+261.781+283.504+236.058C283.187+229.716+282.617+223.403+281.853+217.114C280.58+206.633+278.772+196.218+276.71+185.844C276.673+185.237+276.637+184.631+276.601+184.024C276.319+182.948+275.981+181.888+275.587+180.848C275.51+180.629+275.435+180.409+275.36+180.19C274.763+178.664+274.501+177.028+274.593+175.393C271.274+165.821+268.703+156.032+265.943+146.29C265.024+143.043+264.083+139.802+263.086+136.575C262.517+134.732+261.928+132.894+261.318+131.061C253.086+106.427+243.515+82.3542+233.197+58.5421C228.347+47.349+223.971+35.9506+218.967+24.8021C235.424+54.8152+249.909+85.8683+262.33+117.764C266.717+129.143+270.961+140.575+274.583+152.207C275.834+156.227+276.999+160.275+278.077+164.35C278.4+165.564+278.714+166.781+279.019+168.001C279.244+168.898+279.467+169.795+279.689+170.694C279.909+171.592+280.122+172.493+280.328+173.396L280.328+173.396L280.336+173.432C280.612+174.731+280.889+176.029+281.166+177.326L281.167+177.331C281.175+177.336+281.596+177.599+281.596+177.599L281.346+178.099L281.434+178.387C281.674+179.178+281.915+179.969+282.155+180.759L282.155+180.76C282.296+181.195+282.438+181.63+282.58+182.066C291.491+217.398+294.689+253.248+290.139+289.408Z" opacity="0.7" fill="#ffffff"/>
<path d="M276.3+250.362C276.165+232.708+274.424+215.103+271.097+197.764L271.095+197.764L271.095+197.766C274.423+215.104+276.165+232.708+276.3+250.362Z" opacity="1" fill="#ffffff"/>
<path d="M276.3+250.362C276.341+252.881+276.359+255.401+276.355+257.923C276.358+255.401+276.34+252.881+276.3+250.362Z" opacity="1" fill="#ffffff"/>
<path d="M154.812+353.215C154.383+352.542+153.96+351.863+153.545+351.176C152.596+349.608+151.68+348.007+150.799+346.374C139.77+326.001+135.593+303.715+132.824+281.062C132.681+279.9+132.558+278.735+132.446+277.569C132.11+274.07+131.881+270.559+131.574+267.057C131.61+266.571+131.647+266.086+131.685+265.6L131.701+265.378L131.68+265.225C131.575+264.475+131.47+263.725+131.364+262.975C131.402+262.426+131.44+261.876+131.478+261.327C131.291+257.292+131.103+253.257+130.916+249.223C129.185+228.576+131.908+208.247+135.618+188.04C143.983+142.477+159.307+99.0978+177.348+56.5922C179.264+52.0779+181.038+47.5034+182.947+42.9862C184.003+40.4875+185.162+40.7578+186.229+42.9854C186.247+42.9769+186.256+42.965+186.274+42.9568C186.282+42.9693+186.285+42.9803+186.292+42.9926C186.534+42.8+186.765+42.6017+186.98+42.3962C186.99+42.3862+186.999+42.3754+187.009+42.3654C187.441+41.9497+187.835+41.4968+188.188+41.0119C188.535+40.5302+188.847+40.0231+189.119+39.4949C189.389+38.9695+189.631+38.4299+189.843+37.8783C190.057+37.3265+190.248+36.7636+190.428+36.1951C190.969+34.1818+191.619+32.1993+192.374+30.2561C194.545+25.33+195.15+19.4446+200.782+16.6619C200.778+16.3852+200.551+16.1638+200.274+16.1673L200.245+16.1686L200.246+16.1684C198.611+15.3961+197.446+16.4386+196.109+17.1224C187.921+21.3108+183.583+29.0246+179.409+36.4676C174.229+45.7079+168.771+54.8477+163.198+63.7716C154.889+77.108+147.389+90.9324+140.741+105.17C130.713+126.597+121.094+148.296+114.088+171.081C108.823+188.207+104.561+205.41+102.26+223.159C100.03+240.361+100.868+257.592+102.744+274.646C104.105+287.023+107.091+299.254+110.625+311.362C114.975+326.315+122.186+340.281+131.86+352.485C142.355+365.792+156.661+374.405+172.745+379.555C178.403+381.367+184.173+384.646+190.595+382.186C187.272+380.542+183.95+378.898+180.627+377.255C169.348+371.828+161.256+363.305+154.812+353.215Z" opacity="0.7" fill="#ffffff"/>
<path d="M200.782+16.6619L200.782+16.6618C200.779+16.3852+200.552+16.1637+200.275+16.1671L200.246+16.1684L200.245+16.1685C200.521+16.1487+200.761+16.3565+200.781+16.6325L200.782+16.6619Z" opacity="1" fill="#ffffff"/>
<path d="M238.282+134.496C243.366+160.247+247.186+186.224+249.741+212.426C249.944+214.49+248.772+217.59+252.369+218.104C255.61+218.568+258.367+217.689+259.814+214.434C261.21+211.296+262.417+208.07+263.891+204.97C264.273+204.166+264.635+203.333+265.033+202.532C265.21+202.176+265.396+201.828+265.591+201.489C265.644+201.398+265.698+201.308+265.753+201.218C265.948+200.894+266.16+200.582+266.39+200.281C266.43+200.23+266.474+200.182+266.515+200.132C266.741+199.849+266.988+199.583+267.254+199.337C268.312+198.382+269.671+197.825+271.095+197.764C271.157+196.483+271.112+195.199+270.962+193.925C266.238+169.564+260.198+145.477+252.868+121.77C242.75+89.6036+230.369+58.2735+217.433+27.1532C216.325+24.4873+213.629+22.3127+214.524+18.9241C212.92+17.2047+211.124+15.8833+208.604+16.0592C213.937+28.4905+216.474+41.7935+219.865+54.7544C226.768+81.1392+233+107.742+238.282+134.496Z" opacity="0.8" fill="#ffffff"/>
<path d="M266.515+200.132C266.474+200.182+266.43+200.23+266.39+200.281" opacity="1" fill="#ffffff"/>
<path d="M271.095+197.766L271.095+197.764C269.671+197.826+268.312+198.382+267.254+199.337C268.312+198.382+269.671+197.826+271.095+197.766Z" opacity="1" fill="#ffffff"/>
<path d="M265.753+201.218C265.698+201.308+265.644+201.398+265.591+201.489" opacity="1" fill="#ffffff"/>
<path d="M183.246+348.273C177.194+325.198+173.979+301.842+172.452+278.135C172.057+272+172.923+265.632+169.957+259.825C166.601+260.299+163.194+260.29+159.84+259.799C158.378+259.661+156.917+259.528+155.459+259.482C155.099+259.471+154.739+259.465+154.379+259.465C151.809+259.406+149.256+259.885+146.882+260.87C147.458+275.288+148.885+289.66+151.158+303.91C151.5+305.933+151.869+307.951+152.263+309.963C152.966+313.542+153.761+317.102+154.646+320.645C156.864+329.586+159.792+338.336+163.401+346.811C167.676+356.777+173.441+365.715+181.542+373.037C182.616+374.007+183.834+374.893+183.897+376.529L183.943+376.539L184.047+376.611C184.306+376.527+184.564+376.443+184.822+376.359L184.835+377.156C184.572+376.974+184.31+376.793+184.047+376.611L183.909+376.656C183.909+376.611+183.898+376.573+183.897+376.529C183.021+376.334+182.144+376.139+181.268+375.944C181.056+376.38+180.844+376.816+180.63+377.252C183.95+378.898+187.271+380.543+190.595+382.186C195.655+381.489+200.08+385.471+205.221+384.173C194.043+374.563+187.047+362.762+183.246+348.273Z" opacity="0.9" fill="#ffffff"/>
<path d="M183.943+376.539L183.909+376.656L184.047+376.611L183.944+376.539L183.897+376.529L183.897+376.529L183.943+376.539Z" opacity="1" fill="#ffffff"/>
<path d="M175.853+153.475C176.901+145.838+177.805+138.181+178.847+130.543C182.435+104.245+187.39+78.1953+192.648+52.1854C193.25+49.2046+193.879+46.2313+194.535+43.2656C195.025+41.0407+195.526+38.8187+196.037+36.5998C197.569+29.942+199.18+23.305+200.782+16.6619L200.782+16.6619C195.15+19.4445+194.545+25.33+192.374+30.2561C191.619+32.1992+190.969+34.1818+190.428+36.1951C190.248+36.7636+190.057+37.3264+189.843+37.8783C189.631+38.4298+189.389+38.9695+189.119+39.4948C188.847+40.0231+188.536+40.5302+188.188+41.0118C187.835+41.4967+187.441+41.9496+187.009+42.3653C186.999+42.3753+186.99+42.3862+186.98+42.3962C186.765+42.6017+186.534+42.7999+186.292+42.9926C186.79+43.8676+186.596+44.4502+185.592+44.6909C185.893+45.0796+186.123+45.5188+186.27+45.9879C186.631+47.2615+185.985+48.3292+184.627+49.2518L184.627+49.2519C184.423+50.3496+184.198+51.4409+183.952+52.5258C183.706+53.611+183.443+54.6908+183.161+55.765C182.783+57.209+182.38+58.6449+181.949+60.0729C179.598+67.9312+176.603+75.5958+174.248+83.4539C166.613+108.938+160.467+134.764+154.48+160.684C147.944+188.983+146.457+217.551+146.026+246.325C146.02+246.715+146.005+247.108+145.985+247.503C145.966+247.898+145.944+248.295+145.924+248.692C145.905+249.09+145.889+249.489+145.882+249.887C145.879+250.086+145.879+250.285+145.881+250.483C145.883+250.707+145.89+250.93+145.902+251.152C145.932+252.759+146.427+254.323+147.327+255.654C147.204+256.3+147.082+256.946+146.959+257.593L146.93+257.747L146.857+258.132C146.865+259.045+146.874+259.957+146.882+260.87C149.256+259.885+151.809+259.406+154.379+259.465C154.739+259.465+155.099+259.47+155.459+259.482C156.917+259.528+158.378+259.661+159.84+259.799C163.194+260.29+166.601+260.299+169.957+259.825C170.737+256.559+171.114+253.208+171.08+249.85C171.082+249.277+171.076+248.705+171.063+248.133C171.035+246.888+170.978+245.644+170.905+244.399C170.686+240.664+170.33+236.928+170.243+233.195L170.243+233.194C170.943+219.088+171.744+204.986+172.284+190.874" opacity="0.8" fill="#ffffff"/>
<path d="M146.93+257.747L146.959+257.593L146.94+257.691L146.93+257.747Z" opacity="1" fill="#ffffff"/>
<path d="M170.905+244.399C170.686+240.664+170.33+236.928+170.243+233.195L170.243+233.194L170.243+233.194C170.33+236.928+170.686+240.664+170.905+244.399Z" opacity="1" fill="#ffffff"/>
<path d="M170.905+244.399C170.978+245.644+171.035+246.888+171.062+248.133" opacity="1" fill="#ffffff"/>
<path d="M186.292+42.9925C186.534+42.7999+186.765+42.6017+186.98+42.3962" opacity="1" fill="#ffffff"/>
<path d="M187.009+42.3653C187.441+41.9496+187.835+41.4967+188.188+41.0118C187.835+41.4967+187.441+41.9496+187.009+42.3653Z" opacity="1" fill="#ffffff"/>
<path d="M188.188+41.0118C188.535+40.5302+188.847+40.0231+189.119+39.4948C188.847+40.0231+188.535+40.5301+188.188+41.0118Z" opacity="1" fill="#ffffff"/>
<path d="M159.84+259.799C158.378+259.661+156.917+259.528+155.459+259.482C156.917+259.528+158.378+259.661+159.84+259.799Z" opacity="1" fill="#ffffff"/>
<path d="M282.155+180.76L282.155+180.76L281.434+178.387L281.346+178.099L281.194+177.727C281.194+177.727+281.17+177.343+281.166+177.331L281.164+177.329C280.888+176.03+280.612+174.731+280.336+173.432L280.328+173.396C278.417+174.062+276.505+174.727+274.593+175.393C274.502+177.028+274.763+178.664+275.36+180.19C275.434+180.41+275.51+180.629+275.587+180.848C275.981+181.888+276.319+182.948+276.601+184.024C276.637+184.63+276.674+185.237+276.71+185.844C278.772+196.218+280.58+206.633+281.853+217.114C282.616+223.403+283.187+229.716+283.504+236.058C284.79+261.782+283.939+287.38+279.125+312.809C273.946+340.165+264.811+364.951+239.116+380.068C252.6+375.35+262.58+366.397+270.461+354.761C283.831+335.022+287.278+312.143+290.139+289.408C294.689+253.248+291.491+217.398+282.58+182.066C281.895+181.807+281.784+181.361+282.155+180.76Z" opacity="1" fill="#ffffff"/>
<path d="M276.601+184.024C276.637+184.631+276.673+185.237+276.71+185.844C278.772+196.218+280.58+206.633+281.853+217.114C280.58+206.633+278.772+196.218+276.71+185.844C276.674+185.237+276.637+184.63+276.601+184.024Z" opacity="1" fill="#ffffff"/>
<path d="M282.155+180.76L282.155+180.759C281.914+179.969+281.674+179.178+281.434+178.387C281.674+179.178+281.914+179.969+282.155+180.76L282.155+180.76Z" opacity="1" fill="#ffffff"/>
<path d="M281.166+177.331L281.166+177.326C280.888+176.03+280.611+174.732+280.336+173.432C280.612+174.731+280.888+176.03+281.164+177.329L281.166+177.331Z" opacity="1" fill="#ffffff"/>
<path d="M280.328+173.396L280.328+173.396C280.123+172.493+279.91+171.592+279.689+170.694C279.469+169.795+279.246+168.897+279.019+168.001C278.714+166.781+278.4+165.564+278.077+164.35C276.993+160.277+275.829+156.229+274.583+152.208C270.961+140.575+266.717+129.143+262.33+117.764C249.909+85.8685+235.424+54.8154+218.967+24.8023C223.971+35.9507+228.347+47.3492+233.197+58.5423C243.515+82.3544+253.086+106.427+261.318+131.062C261.93+132.893+262.519+134.731+263.086+136.576C264.083+139.802+265.024+143.043+265.943+146.291C268.703+156.032+271.275+165.822+274.593+175.393C276.506+174.727+278.417+174.062+280.328+173.396Z" opacity="0.8" fill="#ffffff"/>
<path d="M274.583+152.208C275.834+156.227+276.999+160.275+278.077+164.35" opacity="1" fill="#ffffff"/>
<path d="M280.328+173.396L280.328+173.396C280.123+172.493+279.91+171.592+279.689+170.694C279.909+171.592+280.122+172.493+280.328+173.396Z" opacity="1" fill="#ffffff"/>
<path d="M279.689+170.694C279.469+169.795+279.246+168.897+279.019+168.001" opacity="1" fill="#ffffff"/>
<path d="M139.821+214.063C140.118+210.499+140.46+206.938+140.848+203.382C141.16+200.537+141.504+197.696+141.881+194.858C142.637+189.181+143.54+183.519+144.588+177.872C150.234+147.668+158.528+118.153+168.341+89.0664C172.321+77.2706+176.759+65.6271+181.132+53.9684C181.805+52.1747+181.712+49.5188+184.573+49.2104C183.021+47.3138+184.084+45.9517+185.526+44.6672C185.238+44.0503+185.505+43.3171+186.122+43.0294C186.157+43.013+186.193+42.9984+186.229+42.9854C185.162+40.7578+184.003+40.4875+182.947+42.9862C181.037+47.5034+179.264+52.0779+177.348+56.5921C159.307+99.0978+143.983+142.477+135.618+188.039C131.908+208.246+129.185+228.576+130.916+249.223C133.341+248.23+135.766+247.237+138.191+246.244C138.439+235.49+138.933+224.758+139.821+214.063Z" opacity="0.8" fill="#ffffff"/>
<path d="M158.418+348.335C157.585+346.744+156.793+345.132+156.045+343.498C155.67+342.681+155.304+341.859+154.948+341.033C153.609+337.921+152.403+334.741+151.304+331.506C148.344+322.454+145.945+313.227+144.12+303.879C142.35+295.084+141.047+286.201+140.218+277.268C139.999+275.038+139.8+272.804+139.62+270.569C139.076+263.864+138.68+257.142+138.315+250.42C138.347+249.901+138.38+249.382+138.412+248.864C138.339+247.991+138.265+247.117+138.191+246.244C135.766+247.237+133.341+248.23+130.916+249.223C131.103+253.257+131.291+257.292+131.478+261.326C131.44+261.876+131.403+262.425+131.365+262.975L131.68+265.225L131.701+265.378L131.685+265.6C131.648+266.086+131.611+266.571+131.574+267.056C131.881+270.558+132.11+274.07+132.446+277.569C132.558+278.735+132.681+279.9+132.824+281.062C135.593+303.715+139.77+326.001+150.799+346.374C151.682+348.005+152.597+349.606+153.545+351.176C153.96+351.862+154.383+352.542+154.812+353.215C161.256+363.305+169.349+371.827+180.63+377.252C180.844+376.815+181.057+376.379+181.268+375.944C171.724+368.523+163.924+359.098+158.418+348.335Z" opacity="1" fill="#ffffff"/>
<path d="M131.478+261.327C131.44+261.876+131.402+262.426+131.364+262.975C131.47+263.725+131.575+264.475+131.68+265.225C131.575+264.475+131.47+263.725+131.365+262.975C131.403+262.425+131.44+261.876+131.478+261.327Z" opacity="1" fill="#ffffff"/>
<path d="M131.685+265.6C131.648+266.086+131.611+266.571+131.574+267.057C131.881+270.559+132.111+274.07+132.446+277.569C132.11+274.07+131.881+270.558+131.574+267.056C131.611+266.571+131.648+266.086+131.685+265.6Z" opacity="1" fill="#ffffff"/>
<path d="M180.63+377.253C180.845+376.815+181.057+376.379+181.268+375.945" opacity="1" fill="#ffffff"/>
<path d="M138.191+246.244L130.916+249.223" opacity="1" fill="#ffffff"/>
<path d="M146.959+257.592L147.038+257.173" opacity="1" fill="#ffffff"/>
<path d="M146.93+257.747L146.959+257.593" opacity="1" fill="#ffffff"/>
<path d="M146.856+258.132L146.915+257.824L146.94+257.691L147.038+257.174C147.134+256.667+147.23+256.16+147.327+255.654C146.426+254.323+145.932+252.759+145.902+251.152C145.89+250.929+145.883+250.707+145.881+250.483C145.878+250.285+145.879+250.086+145.882+249.887C145.889+249.489+145.905+249.09+145.924+248.692C145.944+248.294+145.966+247.897+145.985+247.503C146.004+247.108+146.02+246.715+146.026+246.325C146.457+217.551+147.943+188.983+154.48+160.684C160.467+134.764+166.612+108.938+174.248+83.4539C176.603+75.5959+179.597+67.9312+181.949+60.0729C182.377+58.6441+182.781+57.2081+183.161+55.765C183.442+54.6904+183.705+53.6107+183.952+52.5258C184.197+51.4406+184.422+50.3492+184.627+49.2518L184.613+49.2624C184.599+49.2448+184.588+49.2279+184.573+49.2104C181.712+49.5187+181.805+52.1746+181.132+53.9684C176.759+65.6271+172.321+77.2706+168.341+89.0664C158.528+118.153+150.234+147.668+144.588+177.872C143.532+183.518+142.63+189.18+141.881+194.858C141.503+197.696+141.159+200.537+140.848+203.382C140.458+206.938+140.116+210.498+139.821+214.063C138.933+224.758+138.439+235.49+138.192+246.244L138.191+246.244C138.265+247.117+138.338+247.991+138.412+248.864C138.38+249.383+138.347+249.901+138.315+250.42C138.68+257.142+139.076+263.864+139.62+270.569C139.801+272.804+140.001+275.037+140.218+277.268C141.047+286.201+142.349+295.084+144.12+303.879C145.945+313.227+148.344+322.454+151.304+331.506C152.403+334.741+153.609+337.921+154.948+341.033C155.304+341.859+155.67+342.681+156.045+343.498C156.795+345.131+157.586+346.743+158.418+348.335C163.925+359.098+171.725+368.522+181.268+375.944L181.268+375.944C182.144+376.14+183.021+376.334+183.897+376.529C183.834+374.893+182.616+374.007+181.542+373.037C173.441+365.715+167.676+356.777+163.401+346.811C159.792+338.336+156.864+329.586+154.646+320.645C153.756+317.103+152.962+313.542+152.263+309.963C151.868+307.951+151.5+305.933+151.158+303.91C148.885+289.66+147.458+275.288+146.882+260.87C146.873+259.957+146.865+259.044+146.856+258.132Z" opacity="0.7" fill="#ffffff"/>
<path d="M183.897+376.529C183.899+376.573+183.909+376.611+183.909+376.656L183.943+376.539L183.897+376.529Z" opacity="1" fill="#ffffff"/>
<path d="M183.897+376.529L183.897+376.529C183.021+376.334+182.144+376.139+181.268+375.944C182.144+376.14+183.021+376.334+183.897+376.529Z" opacity="1" fill="#ffffff"/>
<path d="M146.856+258.132C146.865+259.045+146.873+259.957+146.882+260.87C146.873+259.957+146.865+259.045+146.857+258.132L146.915+257.824L146.856+258.132Z" opacity="1" fill="#ffffff"/>
<path d="M146.915+257.824L146.857+258.132L146.93+257.747L146.94+257.691L146.915+257.824Z" opacity="1" fill="#ffffff"/>
<path d="M138.192+246.244C138.44+235.49+138.933+224.758+139.821+214.063C138.933+224.758+138.439+235.49+138.191+246.244L138.192+246.244Z" opacity="1" fill="#ffffff"/>
<path d="M139.821+214.063C140.118+210.499+140.46+206.938+140.848+203.382" opacity="1" fill="#ffffff"/>
<path d="M138.315+250.42C138.347+249.901+138.38+249.382+138.412+248.864C138.339+247.991+138.265+247.117+138.191+246.244C138.265+247.117+138.338+247.991+138.412+248.864C138.38+249.383+138.347+249.901+138.315+250.42Z" opacity="1" fill="#ffffff"/>
<path d="M151.304+331.506C152.403+334.741+153.609+337.921+154.948+341.033" opacity="1" fill="#ffffff"/>
<path d="M158.418+348.335C163.924+359.098+171.724+368.523+181.268+375.944L181.268+375.944C171.725+368.522+163.925+359.098+158.418+348.335Z" opacity="1" fill="#ffffff"/>
<path d="M156.045+343.498C156.795+345.131+157.586+346.743+158.418+348.335C157.585+346.744+156.793+345.132+156.045+343.498Z" opacity="1" fill="#ffffff"/>
<path d="M156.045+343.498C155.67+342.681+155.304+341.859+154.948+341.033" opacity="1" fill="#ffffff"/>
<path d="M139.62+270.569C139.076+263.864+138.68+257.142+138.315+250.42C138.347+249.901+138.38+249.383+138.412+248.864C138.38+249.382+138.347+249.901+138.315+250.42C138.68+257.142+139.076+263.864+139.62+270.569Z" opacity="1" fill="#ffffff"/>
<path d="M140.218+277.268C139.999+275.038+139.8+272.805+139.62+270.569" opacity="1" fill="#ffffff"/>
<path d="M185.535+44.7075C185.529+44.693+185.531+44.6815+185.526+44.6671C184.084+45.9517+183.021+47.3138+184.573+49.2104C184.596+49.2079+184.615+49.2027+184.637+49.2006L184.637+49.2007L184.627+49.2518C185.984+48.3292+186.631+47.2615+186.27+45.9879C186.122+45.5188+185.893+45.0796+185.592+44.6909C185.571+44.6958+185.556+44.7029+185.535+44.7075Z" opacity="1" fill="#ffffff"/>
<path d="M186.27+45.9879C186.122+45.5188+185.893+45.0796+185.592+44.6909L185.592+44.691C185.893+45.0796+186.122+45.5188+186.27+45.9879Z" opacity="1" fill="#ffffff"/>
<path d="M184.638+49.2007L184.638+49.2006L184.632+49.2142L184.638+49.2007Z" opacity="1" fill="#ffffff"/>
<path d="M184.632+49.2142L184.613+49.2625L184.627+49.2519L184.627+49.2518L184.638+49.2007L184.632+49.2142Z" opacity="1" fill="#ffffff"/>
<path d="M184.638+49.2006C184.615+49.2027+184.596+49.2079+184.574+49.2104C184.588+49.2279+184.599+49.2448+184.613+49.2625L184.632+49.2142L184.638+49.2006Z" opacity="1" fill="#ffffff"/>
<path d="M184.613+49.2625L184.632+49.2142" opacity="1" fill="#ffffff"/>
<path d="M185.526+44.6671L185.558+44.6384L185.558+44.6384L185.558+44.6383C185.571+44.6563+185.578+44.673+185.592+44.6909C186.596+44.4502+186.79+43.8676+186.292+42.9926C186.278+43.0041+186.266+43.0169+186.251+43.0284L186.229+42.9854C185.588+43.2139+185.254+43.9188+185.482+44.56C185.495+44.5964+185.51+44.6321+185.526+44.6671Z" opacity="1" fill="#ffffff"/>
<path d="M186.263+42.9925L186.251+43.0284C186.266+43.0169+186.278+43.0041+186.292+42.9925C186.278+43.0041+186.266+43.0168+186.251+43.0283L186.263+42.9925Z" opacity="1" fill="#ffffff"/>
<path d="M186.251+43.0283C186.266+43.0168+186.278+43.0041+186.292+42.9926C186.285+42.9802+186.282+42.9692+186.274+42.9568L186.263+42.9926L186.251+43.0283Z" opacity="1" fill="#ffffff"/>
<path d="M186.263+42.9925L186.274+42.9568C186.256+42.965+186.247+42.9769+186.229+42.9853L186.251+43.0283L186.263+42.9925Z" opacity="1" fill="#ffffff"/>
<path d="M185.558+44.6384C185.571+44.6564+185.578+44.673+185.592+44.6909L185.592+44.6909C185.578+44.673+185.571+44.6563+185.558+44.6384Z" opacity="1" fill="#ffffff"/>
<path d="M185.535+44.7075C185.556+44.7028+185.571+44.6958+185.592+44.6909C185.578+44.673+185.571+44.6564+185.558+44.6384L185.546+44.6729L185.535+44.7075Z" opacity="1" fill="#ffffff"/>
<path d="M185.546+44.6729L185.558+44.6384L185.526+44.6671C185.531+44.6815+185.529+44.693+185.535+44.7075L185.546+44.6729Z" opacity="1" fill="#ffffff"/>
<path d="M185.558+44.6384L185.558+44.6384L185.546+44.6729L185.558+44.6384Z" opacity="1" fill="#ffffff"/>
</g>
</svg>
