<svg xmlns="http://www.w3.org/2000/svg" width="1281" height="488" viewBox="0 0 1281 488"><path fill="#2a2a41" d="M15 0h1266v165.595s-376.565-2.732-647.85 88.333C361.864 344.993 15 428 15 428v-62.692s288.879-85.53 625.087-185.7c314.158-93.602 627.066-117.191 627.066-117.191H15.065z"/><path fill="#748aa1" fill-opacity=".3" d="M15 104.618v61.111s279.905 8.912 468.816 48.38c188.91 39.468 237.375 123.497 440.487 168.502C1127.416 427.616 1281 428 1281 428v-61.192s-162.206-12.651-291.773-44.48c-129.568-31.83-231.441-110.765-445.568-169.534C329.533 94.025 15 104.618 15 104.618z"/><path fill="#2a2a41" d="M15 428h1266v60H15z"/><path fill="#53c5ee" d="M0 1h15v162H8V10.93H0z"/><path fill="#c98f4a" d="M0 365h15v123H8V375.058H0z"/><path fill="#748aa1" d="M1265 0h15v163h-15z"/><path fill="#4a90e2" d="M1265 365h16v123h-16z"/></svg>