<svg xmlns="http://www.w3.org/2000/svg" width="103" height="100" viewBox="0 0 103 100"><path fill="#326ce5" d="M50.975.006a6.836 6.836 0 00-2.639.702l-35.73 17.12a6.793 6.793 0 00-3.686 4.611L.174 60.862a6.664 6.664 0 00.962 5.24c.122.186.25.367.384.54l24.686 30.833A6.812 6.812 0 0031.534 100h39.593c2.071.003 4.033-.966 5.335-2.554l24.673-30.839a6.644 6.644 0 001.282-5.751L93.614 22.4a6.81 6.81 0 00-3.687-4.611L54.255.71a6.835 6.835 0 00-3.312-.705z"/><path fill="#fff" d="M51.697 61.914a1.91 1.91 0 011.735.993h.042l5.471 9.852-2.186.644a22.316 22.316 0 01-12.138-.625l5.49-9.852c.333-.58.947-.934 1.616-.95zm-9.369-4.511c.633.01 1.218.335 1.563.863.346.529.4 1.193.152 1.773v.042l-4.302 10.37a22.183 22.183 0 01-8.909-11.14l11.102-1.88a1.82 1.82 0 01.375 0zm18.786-.049a1.98 1.98 0 01.436 0l11.19 1.887c-1.614 4.644-4.8 8.611-8.957 11.265l-4.325-10.462a1.901 1.901 0 011.643-2.641zM50.03 48.21h3.46l2.114 2.68-.768 3.352-3.108 1.492-3.115-1.492-.732-3.351zm20.677-8.121a22.458 22.458 0 013.237 13.944l-10.876-3.126v-.042a1.877 1.877 0 01-1.347-1.402 1.905 1.905 0 01.6-1.85l8.4-7.499zm-37.938-.004a.836.836 0 00-.003.004zm8.453 7.538v.048a1.894 1.894 0 01-.746 3.252v.032l-10.85 3.117a22.08 22.08 0 013.14-13.983zm13.233-17.934a22.338 22.338 0 0112.869 6.2l-9.153 6.5a1.896 1.896 0 01-3.077-1.456zm-5.383 0l-.646 11.257h-.048c-.033.696-.442 1.289-1.072 1.624-.63.335-1.375.235-1.936-.174l-9.248-6.542a22.152 22.152 0 0110.661-5.798 22.875 22.875 0 012.282-.367zm2.692-16.648a2.273 2.273 0 00-2.115 2.385v.606c.059.686.162 1.366.297 2.04.198 1.29.27 2.595.213 3.899a2.35 2.35 0 01-.703 1.112l-.049.908c-1.307.11-2.604.31-3.883.6a27.653 27.653 0 00-14.053 8.008l-.774-.548a1.67 1.67 0 01-1.275-.129 20.065 20.065 0 01-2.895-2.61 17.896 17.896 0 00-1.41-1.498l-.479-.38a2.582 2.582 0 00-1.494-.565 2.067 2.067 0 00-1.714.76 2.272 2.272 0 00.53 3.169l.445.354c.573.381 1.168.729 1.782 1.041a18.5 18.5 0 013.22 2.256c.257.364.405.793.43 1.237l.704.645a27.74 27.74 0 00-4.384 19.355l-.903.258a2.95 2.95 0 01-.923.928 20.121 20.121 0 01-3.854.635c-.691.014-1.381.068-2.066.161l-.571.129h-.065a2.157 2.157 0 10-1.25 3.648c.577.58 1.432.786 2.209.532h.042l.58-.065a17.27 17.27 0 001.931-.702 20.176 20.176 0 013.75-1.096c.446.026.872.177 1.233.435l.969-.161a27.926 27.926 0 0012.394 15.478l-.394.822c.18.377.249.796.194 1.212a20.798 20.798 0 01-1.946 3.519 17.98 17.98 0 00-1.156 1.717l-.274.58a2.156 2.156 0 00.06 2.255 2.164 2.164 0 002.038.971c.81-.09 1.5-.629 1.785-1.392l.267-.548c.246-.644.452-1.302.62-1.965.571-1.409.881-2.92 1.662-3.855.256-.24.577-.397.923-.45l.485-.88a27.863 27.863 0 0019.837.048l.429.821a1.68 1.68 0 011.097.661 20.266 20.266 0 011.472 3.61c.17.667.38 1.325.626 1.968l.268.548a2.162 2.162 0 003.831.422 2.156 2.156 0 00.052-2.259l-.28-.58a17.883 17.883 0 00-1.156-1.71 22.803 22.803 0 01-1.937-3.407 1.674 1.674 0 01.22-1.29 7.373 7.373 0 01-.359-.866 27.963 27.963 0 0012.34-15.533l.916.16c.33-.299.762-.457 1.204-.444 1.282.245 2.537.645 3.75 1.096.63.29 1.276.535 1.93.741.156.042.382.077.556.12h.042c.777.25 1.629.042 2.203-.538.574-.58.772-1.432.511-2.205a2.162 2.162 0 00-1.755-1.437l-.627-.149a18.006 18.006 0 00-2.065-.16 19.716 19.716 0 01-3.854-.636 2.425 2.425 0 01-.93-.928l-.871-.258a27.842 27.842 0 00-4.474-19.313l.762-.702a1.7 1.7 0 01.4-1.219 20.293 20.293 0 013.196-2.242c.613-.313 1.208-.66 1.781-1.041l.472-.38a2.158 2.158 0 00-.43-3.874 2.165 2.165 0 00-2.246.519l-.478.38c-.498.472-.97.972-1.41 1.498a20.12 20.12 0 01-2.818 2.653 2.392 2.392 0 01-1.304.141l-.817.58a28.215 28.215 0 00-17.865-8.604c0-.322-.041-.806-.048-.957a1.692 1.692 0 01-.704-1.07 20.046 20.046 0 01.246-3.89c.139-.676.235-1.353.297-2.04v-.644a2.27 2.27 0 00-2.114-2.385z"/><path fill="none" stroke="#fff" stroke-miterlimit="20" stroke-width=".5" d="M51.697 61.914a1.91 1.91 0 011.735.993h.042l5.471 9.852-2.186.644a22.316 22.316 0 01-12.138-.625l5.49-9.852c.333-.58.947-.934 1.616-.95zm-9.369-4.511c.633.01 1.218.335 1.563.863.346.529.4 1.193.152 1.773v.042l-4.302 10.37a22.183 22.183 0 01-8.909-11.14l11.102-1.88a1.82 1.82 0 01.375 0zm18.786-.049a1.98 1.98 0 01.436 0l11.19 1.887c-1.614 4.644-4.8 8.611-8.957 11.265l-4.325-10.462a1.901 1.901 0 011.643-2.641zM50.03 48.21h3.46l2.114 2.68-.768 3.352-3.108 1.492-3.115-1.492-.732-3.351zm20.677-8.121a22.458 22.458 0 013.237 13.944l-10.876-3.126v-.042a1.877 1.877 0 01-1.347-1.402 1.905 1.905 0 01.6-1.85l8.4-7.499zm-37.938-.004a.836.836 0 00-.003.004h0zm8.453 7.538v.048a1.894 1.894 0 01-.746 3.252v.032l-10.85 3.117a22.08 22.08 0 013.14-13.983zm13.233-17.934a22.338 22.338 0 0112.869 6.2l-9.153 6.5a1.896 1.896 0 01-3.077-1.456zm-5.383 0l-.646 11.257h-.048c-.033.696-.442 1.289-1.072 1.624-.63.335-1.375.235-1.936-.174l-9.248-6.542a22.152 22.152 0 0110.661-5.798 22.875 22.875 0 012.282-.367zm2.692-16.648a2.273 2.273 0 00-2.115 2.385v.606c.059.686.162 1.366.297 2.04.198 1.29.27 2.595.213 3.899a2.35 2.35 0 01-.703 1.112l-.049.908c-1.307.11-2.604.31-3.883.6a27.653 27.653 0 00-14.053 8.008l-.774-.548a1.67 1.67 0 01-1.275-.129 20.065 20.065 0 01-2.895-2.61 17.896 17.896 0 00-1.41-1.498l-.479-.38a2.582 2.582 0 00-1.494-.565 2.067 2.067 0 00-1.714.76 2.272 2.272 0 00.53 3.169l.445.354c.573.381 1.168.729 1.782 1.041a18.5 18.5 0 013.22 2.256c.257.364.405.793.43 1.237l.704.645a27.74 27.74 0 00-4.384 19.355l-.903.258a2.95 2.95 0 01-.923.928 20.121 20.121 0 01-3.854.635c-.691.014-1.381.068-2.066.161l-.571.129h-.065a2.157 2.157 0 10-1.25 3.648c.577.58 1.432.786 2.209.532h.042l.58-.065a17.27 17.27 0 001.931-.702 20.176 20.176 0 013.75-1.096c.446.026.872.177 1.233.435l.969-.161a27.926 27.926 0 0012.394 15.478l-.394.822c.18.377.249.796.194 1.212a20.798 20.798 0 01-1.946 3.519 17.98 17.98 0 00-1.156 1.717l-.274.58a2.156 2.156 0 00.06 2.255 2.164 2.164 0 002.038.971c.81-.09 1.5-.629 1.785-1.392l.267-.548c.246-.644.452-1.302.62-1.965.571-1.409.881-2.92 1.662-3.855.256-.24.577-.397.923-.45l.485-.88a27.863 27.863 0 0019.837.048l.429.821a1.68 1.68 0 011.097.661 20.266 20.266 0 011.472 3.61c.17.667.38 1.325.626 1.968l.268.548a2.162 2.162 0 003.831.422 2.156 2.156 0 00.052-2.259l-.28-.58a17.883 17.883 0 00-1.156-1.71 22.803 22.803 0 01-1.937-3.407 1.674 1.674 0 01.22-1.29 7.373 7.373 0 01-.359-.866 27.963 27.963 0 0012.34-15.533l.916.16c.33-.299.762-.457 1.204-.444 1.282.245 2.537.645 3.75 1.096.63.29 1.276.535 1.93.741.156.042.382.077.556.12h.042c.777.25 1.629.042 2.203-.538.574-.58.772-1.432.511-2.205a2.162 2.162 0 00-1.755-1.437l-.627-.149a18.006 18.006 0 00-2.065-.16 19.716 19.716 0 01-3.854-.636 2.425 2.425 0 01-.93-.928l-.871-.258a27.842 27.842 0 00-4.474-19.313l.762-.702a1.7 1.7 0 01.4-1.219 20.293 20.293 0 013.196-2.242c.613-.313 1.208-.66 1.781-1.041l.472-.38a2.158 2.158 0 00-.43-3.874 2.165 2.165 0 00-2.246.519l-.478.38c-.498.472-.97.972-1.41 1.498a20.12 20.12 0 01-2.818 2.653 2.392 2.392 0 01-1.304.141l-.817.58a28.215 28.215 0 00-17.865-8.604c0-.322-.041-.806-.048-.957a1.692 1.692 0 01-.704-1.07 20.046 20.046 0 01.246-3.89c.139-.676.235-1.353.297-2.04v-.644a2.27 2.27 0 00-2.114-2.385z"/></svg>