<svg xmlns="http://www.w3.org/2000/svg" width="117" height="61" viewBox="0 0 117 61"><path fill="#fff" d="M92.142 30.485c-1.926-.396-3.427-.826-4.428-1.321a2.61 2.61 0 01-1.194-.925 1.955 1.955 0 01-.23-.925v-1.685c0-.694.307-1.025.885-1.025.23 0 .462.033.693.1.23.066.577.198.962.33 1.348.529 2.773.892 4.236 1.156a26.42 26.42 0 004.582.397c2.425 0 4.312-.364 5.621-1.09 1.27-.661 2.04-1.85 2.002-3.14.039-.858-.346-1.684-1.04-2.312-.692-.628-2.001-1.19-3.888-1.718L94.76 16.84c-2.81-.76-4.89-1.883-6.16-3.37-1.233-1.387-1.926-3.04-1.926-4.79a6.31 6.31 0 011.04-3.668 9.058 9.058 0 012.772-2.709C91.68 1.51 93.027.95 94.49.585a18.338 18.338 0 014.852-.561c.847 0 1.732.033 2.58.132.885.099 1.694.231 2.502.363.809.132 1.502.33 2.195.529.578.165 1.117.363 1.617.594.462.199.847.463 1.155.826.27.33.385.694.347 1.09v1.554c0 .693-.308 1.057-.886 1.057a5.592 5.592 0 01-1.463-.397c-2.31-.892-4.851-1.321-7.393-1.288-2.194 0-3.927.297-5.12.925-1.194.628-1.81 1.586-1.81 2.94-.039.892.385 1.751 1.155 2.346.77.628 2.195 1.256 4.235 1.817L103.924 14c2.772.76 4.774 1.817 5.968 3.172 1.193 1.321 1.81 2.973 1.771 4.625a7.201 7.201 0 01-1.001 3.833c-.693 1.123-1.656 2.114-2.81 2.907a12.972 12.972 0 01-4.275 1.85c-1.771.463-3.62.694-5.506.694a29.51 29.51 0 01-5.93-.595zm-45.009-.618c-.385-.363-.693-.793-.809-1.288L37.274 3.03a3.985 3.985 0 01-.347-1.322c-.038-.397.27-.76.732-.826h4.005c.732 0 1.233.099 1.502.33.27.231.54.661.77 1.289l6.432 21.88 6.008-21.88c.193-.661.424-1.09.732-1.289a3.064 3.064 0 011.54-.33h3.081c.732 0 1.232.099 1.54.33.386.364.655.793.732 1.289l6.085 22.144L76.75 2.502c.115-.496.385-.925.77-1.289.462-.231.963-.363 1.502-.33h3.582c.462-.067.885.23.962.628v.198c0 .165-.038.363-.077.529a5.38 5.38 0 01-.27.826l-9.28 25.548c-.232.66-.501 1.09-.81 1.289a2.781 2.781 0 01-1.463.33h-3.312c-.732 0-1.232-.1-1.54-.33-.385-.364-.655-.827-.732-1.322L60.111 7.26l-5.93 21.284c-.077.496-.347.959-.732 1.322-.462.265-1.001.364-1.54.331h-3.312c-.501.033-1.04-.066-1.464-.33zm-25.498-3.842a9.001 9.001 0 003.656-2.114c.615-.595 1.077-1.322 1.308-2.115.27-.925.385-1.916.385-2.874v-1.388a41.227 41.227 0 00-3.54-.562 33.17 33.17 0 00-3.617-.198c-2.578 0-4.464.43-5.733 1.322-1.27.892-1.886 2.147-1.886 3.8 0 1.552.462 2.708 1.424 3.501.962.793 2.27 1.223 4.04 1.223 1.347 0 2.693-.198 3.963-.595zm11.673-4.427a8.526 8.526 0 00.424 2.94c.346.826.77 1.62 1.232 2.38.154.23.27.495.27.759-.04.397-.309.793-.732.991l-2.426 1.388c-.308.165-.655.297-1.001.297a2.051 2.051 0 01-1.155-.462c-.5-.463-1.001-.992-1.386-1.553a24.56 24.56 0 01-1.194-1.95c-3.003 3.04-6.777 4.56-11.32 4.56-3.234 0-5.814-.793-7.7-2.379-1.887-1.586-2.85-3.7-2.85-6.343 0-2.809 1.155-5.088 3.504-6.806s5.467-2.577 9.433-2.577c1.348 0 2.734.099 4.082.264 1.424.165 2.887.43 4.428.727v-2.412c0-2.511-.617-4.262-1.81-5.286-1.194-1.024-3.311-1.52-6.276-1.52a19.46 19.46 0 00-4.159.43 34.37 34.37 0 00-4.158 1.123c-.424.165-.886.297-1.348.43a2.027 2.027 0 01-.616.098c-.539 0-.808-.33-.808-1.024V4.054c-.039-.396.077-.793.27-1.156a3.187 3.187 0 011.077-.694A23.84 23.84 0 0113.941.717 28.277 28.277 0 0119.947.09c4.582 0 7.932.892 10.088 2.676 2.157 1.784 3.196 4.493 3.196 8.127v10.705z"/><path fill="#f90" d="M105.345 47.133c-12.668 8.029-31.072 12.29-46.897 12.29-22.178 0-42.162-7.036-57.255-18.732-1.194-.925-.116-2.18 1.309-1.454 16.326 8.128 36.463 13.05 57.293 13.05 15.017-.066 29.88-2.676 43.702-7.665 2.118-.826 3.927 1.19 1.848 2.511z"/><path fill="#f90" d="M110.619 41.985c-1.618-1.784-10.704-.859-14.824-.43-1.232.133-1.425-.792-.308-1.486 7.238-4.361 19.136-3.106 20.522-1.652 1.386 1.454-.385 11.696-7.162 16.586-1.04.76-2.04.363-1.578-.628 1.54-3.27 4.967-10.639 3.35-12.39z"/></svg>