<svg xmlns="http://www.w3.org/2000/svg" width="34" height="40" viewBox="0 0 34 40"><path fill="#53c5ee" d="M12.723 4.459c1.276-.34 2.636-.702 4.074-1.07 1.312.34 2.558.677 3.741.993 3.874 1.04 7.085 1.905 9.702 2.187V20c0 6.03-6.265 14.915-13.398 16.618C10.819 34.835 3.36 25.718 3.36 20V6.564c2.505-.28 5.616-1.108 9.363-2.105zm4.411 35.508C26.255 38.127 33.6 27.539 33.6 20V5c0-.92-.751-1.666-1.68-1.666-2.436 0-5.996-.957-10.503-2.168C20.097.81 18.7.436 17.223.054a1.687 1.687 0 00-.84-.002c-1.607.409-3.12.81-4.532 1.187C7.456 2.409 3.985 3.334 1.68 3.334.753 3.334 0 4.08 0 5v15c0 7.423 8.733 18.05 16.392 19.95l.408.05z"/><path fill="#fcbb54" d="M13.269 26.731l-4.8-4.8a1.598 1.598 0 010-2.263 1.598 1.598 0 012.262 0l3.562 3.562 6.878-8.255a1.6 1.6 0 012.459 2.048l-8 9.601a1.593 1.593 0 01-1.156.573l-.074.003a1.59 1.59 0 01-1.131-.469z"/></svg>